<?xml version="1.0" encoding="UTF-8" standalone="no"?>
<!-- Created with Inkscape (http://www.inkscape.org/) -->

<svg
   xmlns:dc="http://purl.org/dc/elements/1.1/"
   xmlns:cc="http://creativecommons.org/ns#"
   xmlns:rdf="http://www.w3.org/1999/02/22-rdf-syntax-ns#"
   xmlns:svg="http://www.w3.org/2000/svg"
   xmlns="http://www.w3.org/2000/svg"
   xmlns:sodipodi="http://sodipodi.sourceforge.net/DTD/sodipodi-0.dtd"
   xmlns:inkscape="http://www.inkscape.org/namespaces/inkscape"
   version="1.1"
   id="svg4546"
   width="322.72"
   height="322.72"
   viewBox="0 0 322.72 322.72"
   sodipodi:docname="Logotipo_Sige_BN.svg"
   inkscape:version="0.92.3 (2405546, 2018-03-11)">
  <metadata
     id="metadata4552">
    <rdf:RDF>
      <cc:Work
         rdf:about="">
        <dc:format>image/svg+xml</dc:format>
        <dc:type
           rdf:resource="http://purl.org/dc/dcmitype/StillImage" />
        <dc:title></dc:title>
      </cc:Work>
    </rdf:RDF>
  </metadata>
  <defs
     id="defs4550" />
  <sodipodi:namedview
     pagecolor="#ffffff"
     bordercolor="#666666"
     borderopacity="1"
     objecttolerance="10"
     gridtolerance="10"
     guidetolerance="10"
     inkscape:pageopacity="0"
     inkscape:pageshadow="2"
     inkscape:window-width="2880"
     inkscape:window-height="1586"
     id="namedview4548"
     showgrid="false"
     inkscape:zoom="2.9251363"
     inkscape:cx="297.02176"
     inkscape:cy="138.9203"
     inkscape:window-x="2869"
     inkscape:window-y="-11"
     inkscape:window-maximized="1"
     inkscape:current-layer="svg4546" />
  <path
     inkscape:connector-curvature="0"
     id="path5113"
     d="m 27.66552,299.92283 c -4.40916,-0.96067 -7.6375,-4.23016 -8.07329,-8.17617 C 19.48975,290.81877 19.44959,244.36802 19.47733,158.88 L 19.52,27.44 19.87426,26.4 c 1.22225,-3.588157 4.75693,-6.215787 9.05438,-6.730902 0.8514,-0.102055 47.0769,-0.141738 131.79136,-0.113143 L 291.2,19.6 l 1.24587,0.354957 c 3.70504,1.055587 6.58075,3.703265 7.41171,6.823985 0.18399,0.690972 0.21892,21.787314 0.22052,133.152018 0.002,120.67739 -0.0206,132.40749 -0.25336,133.2 -0.86813,2.95557 -3.28663,5.30014 -6.70474,6.49979 l -1.28,0.44925 -131.6,0.0276 C 51.40566,300.1304 28.47142,300.0986 27.66552,299.92286 Z m 263.74123,-1.76797 c 3.38544,-0.67292 6.09072,-3.02099 6.74367,-5.85321 0.1083,-0.46975 0.16305,-44.25743 0.16568,-132.4874 0.004,-128.897384 -0.003,-131.807087 -0.29924,-132.759696 -0.8038,-2.582684 -3.01804,-4.527588 -6.03222,-5.298484 C 290.75888,21.442574 289.68267,21.44 159.84,21.44 c -129.84267,0 -130.91888,0.0026 -132.14464,0.31607 -2.58432,0.660959 -4.74105,2.326727 -5.73813,4.431885 L 21.44,27.28 21.3981,159.52 c -0.0418,131.92766 -0.0411,132.24251 0.27874,133.30069 0.77884,2.57649 3.38308,4.71061 6.50554,5.33112 0.92094,0.18301 22.09463,0.22054 131.54436,0.23315 116.56343,0.0134 130.578,-0.011 131.68,-0.2301 z M 137.04,272.11098 136.48,271.92 l -0.08,-18.16 -0.08,-18.16 -12.8,-0.08 -12.8,-0.08 v -0.8 -0.8 l 13.72,-0.0409 13.72,-0.0409 v 16.88089 c 0,9.2845 0.0541,16.8809 0.12019,16.8809 0.0661,0 12.17107,-24.10211 26.89992,-53.56024 l 26.77975,-53.56024 -26.805,-53.59976 C 149.29284,75.081778 138.31094,53.297979 138.25451,53.44 c -0.0525,0.132 -0.11317,7.764 -0.13494,16.96 L 138.08,87.12 H 124.4 110.72 v -0.8 -0.8 l 12.8,-0.08797 c 7.04,-0.04838 12.818,-0.102382 12.84,-0.12 0.022,-0.01762 0.04,-8.159214 0.04,-18.09244 0,-20.050838 -0.094,-18.446134 1.08291,-18.481598 L 138.08,48.72 l 9.2,18.32 9.2,18.32 2.88,0.04993 c 1.584,0.02746 3.546,0.0027 4.36,-0.05493 l 1.48,-0.104856 V 67.29565 c 0,-14.215653 0.0421,-18.012074 0.20221,-18.231026 0.12833,-0.17551 0.45342,-0.288974 0.88984,-0.310581 L 166.9797,48.72 175.52118,66.8 c 4.69781,9.944 8.61799,18.206 8.71151,18.36 0.15073,0.24824 0.46478,0.279926 2.76867,0.27935 1.42925,-3.2e-4 3.51664,-0.04747 4.63864,-0.104691 l 2.04,-0.104041 V 67.28589 c 0,-14.207788 0.0421,-18.002317 0.20221,-18.221266 0.1288,-0.176149 0.45361,-0.288896 0.89477,-0.310581 l 0.69256,-0.03404 8.53729,18.08 c 4.69552,9.944 8.61426,18.207234 8.70831,18.362741 0.15737,0.260209 0.4927,0.279334 4.20793,0.24 L 220.96,85.36 l 0.08,-18.155285 0.08,-18.155286 0.4,-0.202355 c 0.51224,-0.25914 1.03779,-0.262144 1.23709,-0.0071 0.0859,0.11 11.98461,25.248555 26.44144,55.863456 l 26.28517,55.66345 -0.31768,0.73655 C 274.9913,161.50856 263.12648,186.662 248.79974,217 l -26.04859,55.16 h -0.58499 c -1.23029,0 -1.122,1.71573 -1.1664,-18.48 l -0.0398,-18.08 -4.08965,-0.0426 -4.08963,-0.0426 -8.63731,18.28264 -8.63731,18.28264 -0.74956,-0.01 c -0.41225,-0.005 -0.80512,-0.0654 -0.87304,-0.13331 -0.0679,-0.0679 -0.14241,-8.28947 -0.16552,-18.27016 l -0.042,-18.14661 h -4.69259 -4.69261 l -8.63351,18.28 -8.6335,18.28 -0.76442,-0.0109 c -0.47936,-0.007 -0.81849,-0.0963 -0.90942,-0.24 -0.0845,-0.13344 -0.14605,-7.76523 -0.14747,-18.26917 L 165.2,235.52 h -4.36056 -4.36056 l -9.11944,18.25278 c -5.01569,10.03903 -9.24071,18.31903 -9.38892,18.4 -0.31506,0.17212 -0.22748,0.17794 -0.93052,-0.0618 z m 55.83867,-59.05557 24.8412,-52.62461 -0.31045,-0.6554 c -0.17073,-0.36047 -11.53771,-24.43288 -25.25992,-53.49425 L 167.2,53.442304 167.1593,70.105654 C 167.13,82.09561 167.0684,86.829443 166.9397,86.984502 166.79732,87.156062 165.81881,87.2 162.14046,87.2 c -2.97632,0 -4.62042,0.05698 -4.62042,0.160141 0,0.08808 8.172,16.504009 18.16,36.479859 9.988,19.97585 18.16,36.46384 18.16,36.64 0,0.17616 -8.17392,16.66798 -18.16426,36.64853 -9.99035,19.98053 -18.1221,36.39646 -18.07056,36.47985 0.0555,0.0898 1.97416,0.15162 4.70714,0.15162 4.05926,0 4.6251,0.0304 4.71056,0.25309 0.0534,0.1392 0.10058,7.7172 0.10482,16.84 l 0.008,16.58691 0.45104,-0.88 c 0.24808,-0.484 11.62958,-24.56107 25.29224,-53.50459 z m 28.48194,0.005 c 24.7559,-52.44098 24.83936,-52.62112 24.60853,-53.12001 -0.12741,-0.27532 -11.49458,-24.35233 -25.26039,-53.50445 L 195.68,53.432259 195.6393,70.100632 c -0.0293,11.993656 -0.0909,16.72881 -0.2196,16.88387 -0.143,0.172314 -1.18832,0.215498 -5.21636,0.215498 -3.9686,0 -5.01954,0.04244 -4.95272,0.2 0.0466,0.11 7.7311,16.364 17.07656,36.12 9.34545,19.756 17.06798,36.18299 17.1612,36.50443 0.16574,0.57159 -0.207,1.38178 -16.96634,36.88 -9.4247,19.96256 -17.15971,36.40357 -17.18891,36.53557 -0.0461,0.20816 0.62617,0.25061 5.06691,0.32 l 5.12,0.08 0.0481,16.8 0.0481,16.8 0.45212,-0.88 c 0.24867,-0.484 11.63019,-24.55874 25.29227,-53.49941 z m 26.89249,0.80206 c 16.48501,-34.91681 25.11584,-53.36729 25.07092,-53.59517 -0.10039,-0.50913 -50.26248,-106.665166 -50.40328,-106.666422 -0.0656,-6.4e-4 -0.1376,7.540938 -0.16,16.758938 l -0.0407,16.76 -4.51555,0.08 -4.51555,0.08 17.20145,36.400004 c 13.48896,28.54398 17.18819,36.5036 17.14002,36.88 -0.0338,0.264 -7.73727,16.72446 -17.11883,36.57883 -9.38159,19.85435 -17.0786,36.19835 -17.10448,36.32 -0.0388,0.18261 0.73409,0.23512 4.43294,0.30117 l 4.48,0.08 0.0407,16.79126 c 0.0265,10.91435 0.0954,16.73662 0.19684,16.63515 0.0859,-0.0858 11.46884,-24.11755 25.29552,-53.40376 z M 98.08,269.07125 c -3.87559,-3.96224 -6.9237,-6.03434 -10.43491,-7.09359 -1.1622,-0.3506 -1.72316,-0.4246 -3.24509,-0.42809 -2.63845,-0.006 -4.44589,0.4607 -10.33924,2.66995 -5.83198,2.18624 -8.2409,2.79195 -11.66076,2.93197 -5.30435,0.2172 -9.88844,-1.68039 -15.99653,-6.62175 -2.01836,-1.63281 -1.80813,-1.1324 -2.23906,-5.32974 -0.3086,-3.0059 -0.35026,-7.77096 -0.0939,-10.73685 0.22681,-2.62368 0.30142,-3.02315 0.5646,-3.02315 0.12136,0 0.87043,0.702 1.6646,1.56 2.85312,3.08242 5.37605,5.09429 8.07193,6.43678 2.447,1.21858 4.13912,1.63207 6.68093,1.63252 3.22264,0 5.56437,-0.62904 11.12275,-2.99055 5.3041,-2.25347 7.5936,-2.86016 10.78464,-2.85781 4.27024,0.003 6.65542,1.06957 14.36016,6.42053 2.26226,1.57114 2.14742,1.36539 2.83462,5.07853 0.60848,3.28778 0.77895,5.80622 0.66605,9.84 -0.0987,3.52662 -0.20562,4.48939 -0.50954,4.58845 -0.0832,0.0271 -1.08728,-0.90762 -2.23128,-2.0772 z M 47.24979,204.18046 c -1.97336,-0.0976 -2.04409,-0.11377 -2.52587,-0.57601 -0.88198,-0.84623 -1.03672,-1.74224 -1.03692,-6.00445 -1.6e-4,-3.31302 0.0431,-3.95971 0.36383,-5.44 0.20021,-0.924 0.46584,-1.75786 0.59028,-1.85302 0.51999,-0.39764 14.65016,-1.49111 23.59889,-1.82621 9.77101,-0.36591 31.36066,0.10886 31.96786,0.70299 0.36003,0.35229 0.68414,2.94197 0.77299,6.17624 0.0832,3.03064 0.0719,3.18357 -0.39492,5.33934 -0.26434,1.22064 -0.54032,2.2786 -0.61328,2.351 -0.073,0.0724 -4.27265,0.2456 -9.33265,0.38489 -5.06,0.1393 -12.224,0.36339 -15.92,0.49799 -7.17577,0.26132 -24.10638,0.41372 -27.47021,0.24724 z m 20.33876,-51.45469 c -6.01019,-0.98332 -12.01437,-3.83827 -20.43391,-9.71622 -1.47357,-1.02874 -2.96619,-2.11867 -3.31693,-2.42207 L 43.2,140.03586 l 0.002,-3.81793 c 9.6e-4,-2.09986 0.063,-5.17327 0.13782,-6.82979 0.11343,-2.51341 0.17775,-3.0279 0.38862,-3.10882 0.34879,-0.13384 2.01675,0.46542 4.11168,1.47723 1.79318,0.86607 4.3924,2.40896 9.68,5.74599 6.59378,4.16138 10.86906,5.73115 15.6,5.72792 3.76814,-0.003 6.97392,-0.86521 13.9076,-3.74237 5.20489,-2.15978 7.69583,-3.1014 9.68015,-3.65924 1.74162,-0.48962 2.3328,-0.56685 2.48269,-0.32432 0.0491,0.0795 0.17068,1.81454 0.27012,3.85567 0.15851,3.25369 0.14672,4.02971 -0.0956,6.29548 -0.15202,1.42137 -0.36208,2.71924 -0.46679,2.88414 -0.34711,0.54662 -8.96263,4.22314 -13.53816,5.77716 -3.03469,1.0307 -5.60785,1.70832 -8.28436,2.18163 -2.45269,0.43373 -7.48767,0.55429 -9.48708,0.22716 z M 96.88,124.0208 c -0.836,-0.33975 -2.672,-1.17388 -4.08,-1.85362 -6.5895,-3.18124 -7.78804,-3.13584 -16.08,0.60916 -2.49088,1.12498 -4.59307,1.8173 -5.02032,1.65335 -0.2391,-0.0917 -0.26033,-0.56467 -0.22203,-4.94557 l 0.0423,-4.84412 1.31396,-0.88 c 2.90593,-1.94618 6.24692,-3.56774 8.76604,-4.25461 0.88274,-0.2407 1.64537,-0.3043 3.6,-0.30026 2.85587,0.006 3.96712,0.23871 6.96,1.458 1.72305,0.70197 6.35157,3.08734 6.77307,3.49059 0.42122,0.40298 0.62661,5.38053 0.36999,8.96628 -0.0993,1.38764 -0.1176,1.44143 -0.50306,1.47927 -0.22,0.0216 -1.084,-0.23871 -1.92,-0.57847 z M 79.2,80.477352 C 76.59174,80.185994 73.26403,79.238883 71.2,78.200445 67.40073,76.288986 64.75422,73.071326 63.76753,69.163942 62.48073,64.068107 63.37213,58.4944 65.99167,55.256955 68.09505,52.657427 72.02077,50.822179 76,50.57813 c 1.90719,-0.11697 4.86045,0.0584 5.10552,0.303177 0.12019,0.120045 0.2054,3.345651 0.27386,10.366482 0.0547,5.605717 0.10866,10.220998 0.12,10.256181 0.0521,0.161558 3.55621,-0.156002 4.34062,-0.393367 2.91875,-0.883222 4.69935,-2.643872 5.43808,-5.377152 0.31526,-1.166441 0.34933,-1.583942 0.27202,-3.333451 -0.10663,-2.413091 -0.36386,-3.657966 -1.40286,-6.789234 -0.53705,-1.618558 -0.74032,-2.441691 -0.63015,-2.55186 0.24338,-0.243375 7.54289,0.818817 7.79226,1.133894 0.21587,0.272736 0.73669,2.438774 1.12611,4.683336 0.38584,2.223925 0.38117,8.045642 -0.008,9.983448 -1.26731,6.310203 -5.47987,10.178338 -12.3986,11.384862 -1.743,0.303954 -5.15198,0.420221 -6.82884,0.232906 z M 76.56,68.02565 c 0,-1.657893 -0.0474,-4.321893 -0.10525,-5.92 L 76.3495,59.2 75.77475,59.2028 c -0.98539,0.0048 -2.70885,0.443155 -3.55702,0.904787 -1.61996,0.881687 -2.37773,2.304592 -2.37773,4.4648 0,2.142498 1.03322,3.981456 2.92339,5.20313 1.00621,0.650345 2.58182,1.239688 3.35661,1.255512 l 0.44,0.009 z"
     style="fill:#ff6600;stroke-width:0.16"
     inkscape:export-filename="C:\Users\Rafael Jaime\Documents\desarrollo\ng6\m2mdas\src\assets\images\logo.png"
     inkscape:export-xdpi="160.02"
     inkscape:export-ydpi="160.02" />
  <path
     inkscape:connector-curvature="0"
     id="path5111"
     d="m 29.0219,299.99858 c -4.1248,-0.39509 -7.72232,-3.0244 -8.97367,-6.55858 L 19.68,292.4 19.6351,160.48 c -0.0323,-94.900557 0.004,-132.211845 0.13002,-132.96 0.27788,-1.65212 1.12038,-3.212925 2.44965,-4.53821 1.77045,-1.765131 3.74257,-2.752323 6.26898,-3.13808 0.78471,-0.119817 40.01288,-0.157062 132.07625,-0.125398 123.75542,0.04256 131.00939,0.06031 131.85789,0.322578 3.71417,1.14806 6.24611,3.413132 7.28715,6.51911 0.28552,0.851832 0.29635,5.097408 0.33832,132.64 0.0295,89.73834 -0.009,132.1172 -0.12134,132.88 -0.24327,1.65426 -1.18104,3.4583 -2.46092,4.73426 -1.87086,1.8651 -4.11022,2.88347 -6.99078,3.17907 -1.88125,0.19304 -259.43369,0.19821 -261.44842,0.005 z M 292,298.19862 c 3.3703,-0.98787 5.7991,-3.34036 6.30608,-6.10801 0.2309,-1.26037 0.24842,-263.174143 0.0177,-264.390696 -0.49975,-2.635101 -2.65093,-4.869448 -5.68378,-5.903498 L 291.36,21.36 160.4,21.316574 c -119.11773,-0.0395 -131.07575,-0.02044 -132.24,0.210732 -1.89758,0.376782 -3.47111,1.193128 -4.73642,2.457259 -1.16017,1.159086 -1.62186,1.932501 -1.98434,3.324171 -0.2114,0.811598 -0.23878,16.244482 -0.23533,132.604884 0.003,88.163 0.0574,131.91828 0.16567,132.38803 0.72091,3.12702 3.78005,5.59774 7.53622,6.08664 0.55781,0.0726 59.7662,0.12294 131.5742,0.11185 124.08282,-0.0191 130.60763,-0.0341 131.52,-0.30152 z m -155,-26.22459 -0.44,-0.1607 v -18.14666 c 0,-9.98067 -0.018,-18.1636 -0.04,-18.18427 -0.022,-0.0207 -5.8,-0.0747 -12.84,-0.12 l -12.8,-0.0824 -0.0511,-0.62371 c -0.032,-0.39082 0.0277,-0.6737 0.16,-0.75755 0.11609,-0.0736 6.19625,-0.13495 13.51148,-0.13629 10.9579,-0.002 13.33191,0.0355 13.47927,0.21305 0.12875,0.15516 0.19026,4.96228 0.21959,17.16 L 138.24,268.08 165.1823,214.24 192.12462,160.4 165.1823,106.56 138.24,52.72 138.1582,69.84 c -0.045,9.416 -0.099,17.138406 -0.12,17.160904 -0.021,0.0225 -6.14019,0.0225 -13.59819,0 L 110.88,86.96 110.8308,86.28 c -0.0271,-0.374 -0.0271,-0.696922 0,-0.717605 0.0271,-0.02068 5.8092,-0.07468 12.8492,-0.12 l 12.8,-0.0824 0.0407,-18.114736 c 0.0406,-18.063806 0.0416,-18.115229 0.36792,-18.289864 0.17997,-0.09632 0.52032,-0.15269 0.75633,-0.125264 0.39905,0.04637 1.07145,1.329907 9.60237,18.329864 l 9.17327,18.28 h 4.46972 4.46971 l 0.002,-18.04 c 0.002,-9.922 0.0612,-18.13255 0.13294,-18.245669 0.0718,-0.113118 0.3928,-0.248233 0.71338,-0.300256 0.52061,-0.08448 0.61062,-0.04542 0.84274,0.365669 0.14294,0.253141 4.05124,8.488256 8.68515,18.300256 l 8.42528,17.84 4.83902,0.04235 4.83904,0.04235 0.002,-18.042347 c 0.002,-9.92329 0.0612,-18.134896 0.13295,-18.248015 0.0718,-0.113118 0.3928,-0.248233 0.71337,-0.300256 0.52027,-0.08443 0.61106,-0.04516 0.84536,0.365669 0.14439,0.253141 4.05304,8.488256 8.68591,18.300256 l 8.4234,17.84 h 4.23828 4.23828 l 0.0407,-18.114736 c 0.0406,-18.063806 0.0416,-18.115229 0.36791,-18.289864 0.17998,-0.09632 0.51451,-0.15269 0.74342,-0.125264 0.3875,0.04643 2.22861,3.887061 26.71208,55.722772 14.46275,30.6201 26.2959,55.75847 26.2959,55.86303 0,0.29212 -52.43563,111.28827 -52.69721,111.54985 -0.18882,0.18882 -0.33287,0.19589 -0.80634,0.0396 l -0.57645,-0.19024 -0.002,-18.0276 c -0.002,-9.91516 -0.0604,-18.11883 -0.13115,-18.23033 -0.0996,-0.15698 -1.06149,-0.19311 -4.25909,-0.16 l -4.13038,0.0427 -8.57955,18.16 c -4.71877,9.988 -8.63994,18.25421 -8.7137,18.36936 -0.14545,0.22702 -0.98321,0.12294 -1.34299,-0.16686 -0.15654,-0.12608 -0.20806,-4.04607 -0.24,-18.26152 L 193.76,235.44 h -4.7849 -4.78489 l -8.60533,18.22451 c -4.73293,10.02349 -8.69912,18.2825 -8.81378,18.35335 -0.2327,0.14382 -0.90438,0.0221 -1.2111,-0.21951 -0.15789,-0.12437 -0.2,-3.95688 -0.2,-18.20083 0,-16.30552 -0.0244,-18.05264 -0.25309,-18.1404 -0.1392,-0.0534 -2.15513,-0.0971 -4.47985,-0.0971 h -4.22678 l -9.13903,18.28 c -5.02647,10.054 -9.22053,18.3329 -9.32014,18.39755 -0.22825,0.14815 -0.3918,0.13711 -0.94111,-0.0635 z m 55.5628,-57.96432 25.30029,-53.59029 -1.25155,-2.65042 C 215.9232,156.31128 204.524,132.16999 191.28,104.12171 178.036,76.073424 167.14634,53.123741 167.08074,53.122414 c -0.0656,-0.0013 -0.1376,7.611586 -0.16,16.917586 l -0.0407,16.92 -4.76,0.04238 c -2.97379,0.02648 -4.76,0.101233 -4.76,0.199216 0,0.08626 8.21682,16.591604 18.2596,36.678544 l 18.25962,36.52172 -18.25962,36.51892 c -10.04278,20.08543 -18.2596,36.591 -18.2596,36.67908 0,0.10315 1.63998,0.16014 4.608,0.16014 3.37067,0 4.65955,0.0516 4.8,0.192 0.14691,0.14691 0.192,4.15645 0.192,17.072 0,10.60333 0.0562,16.82349 0.15126,16.728 0.0832,-0.0836 11.53639,-24.26763 25.45154,-53.74229 z m 28.48586,0 25.29833,-53.58469 -0.53349,-1.13298 C 229.30299,124.22795 195.64706,53.122554 195.56074,53.121482 c -0.0656,-8e-4 -0.1376,7.612518 -0.16,16.918518 l -0.0407,16.92 -5.12,0.08 c -4.43933,0.06936 -5.11325,0.111906 -5.06925,0.32 0.0279,0.132 7.75613,16.548 17.17381,36.48 9.4177,19.932 17.12456,36.384 17.1264,36.56 0.002,0.176 -7.71618,16.664 -17.1511,36.64 -9.43493,19.976 -17.19036,36.41 -17.23426,36.52 -0.0628,0.15746 0.98928,0.2 4.94528,0.2 3.69509,0 5.07594,0.0508 5.21712,0.192 0.14691,0.14691 0.192,4.15645 0.192,17.072 0,10.90238 0.0549,16.82506 0.15517,16.72483 0.0853,-0.0853 11.53941,-24.26827 25.45349,-53.73985 z m 27.34819,-0.15869 c 15.99819,-33.88665 25.12361,-53.38988 25.07905,-53.6 -0.0807,-0.38039 -50.33124,-106.812436 -50.5387,-107.042284 -0.0764,-0.08459 -0.13818,7.223614 -0.13939,16.48 -0.002,9.1476 -0.0456,16.794 -0.0987,16.992 l -0.0965,0.36 h -4.45189 c -2.44854,0 -4.48505,0.054 -4.52558,0.12 -0.0405,0.066 6.47301,13.980004 14.47454,30.920004 8.00154,16.94 15.77312,33.39753 17.27018,36.57228 l 2.72194,5.77229 -17.22186,36.46771 c -9.47203,20.05725 -17.2584,36.55772 -17.30306,36.66772 -0.0638,0.15712 0.86333,0.2 4.32452,0.2 3.79184,0 4.44072,0.035 4.65712,0.25142 0.22529,0.22531 0.25209,2.00016 0.25782,17.08 0.005,14.27597 0.0394,16.7679 0.22389,16.42858 0.1196,-0.22 11.53456,-24.37138 25.36656,-53.66972 z M 97.92,268.74563 c -4.84969,-4.94075 -9.31391,-7.36502 -13.52,-7.34198 -2.58575,0.0142 -4.70947,0.56457 -10.32,2.67465 -6.11471,2.29968 -8.88602,2.9617 -12.39822,2.9617 -3.97388,0 -7.31507,-1.11702 -11.36178,-3.79843 -1.51595,-1.0045 -3.67807,-2.63474 -5.08785,-3.83626 l -0.52784,-0.44987 -0.3368,-2.87773 c -0.24225,-2.06987 -0.33825,-3.86585 -0.34194,-6.39771 -0.005,-3.52797 0.2786,-7.71261 0.5415,-7.98566 0.0825,-0.0856 1.11532,0.84057 2.50659,2.24777 3.63392,3.67554 6.51293,5.64314 9.80634,6.70194 1.11675,0.35902 1.74634,0.45094 3.52,0.51395 3.57472,0.12694 5.72381,-0.39123 11.12,-2.68123 5.94856,-2.5244 9.0498,-3.32304 12.22869,-3.14917 3.68692,0.20165 6.10005,1.30539 12.4504,5.69474 3.35032,2.31572 3.0922,1.94364 3.78613,5.45766 0.63732,3.2273 0.78924,5.40326 0.69261,9.92 -0.0815,3.80782 -0.15682,4.6493 -0.41495,4.63384 -0.0566,-0.003 -1.11088,-1.03309 -2.34288,-2.28821 z M 45.76,204.04365 c -0.67255,-0.0959 -1.30199,-0.75368 -1.63572,-1.70949 -0.24359,-0.69763 -0.28369,-1.38664 -0.28013,-4.81416 0.004,-3.56358 0.0429,-4.16477 0.35951,-5.51026 0.19545,-0.83064 0.43524,-1.55963 0.53289,-1.61996 0.41375,-0.25572 8.97748,-0.9946 18.54345,-1.59992 4.38805,-0.27767 18.70555,-0.3702 25.36,-0.16388 7.72394,0.23949 11.28998,0.44 11.4964,0.64642 0.33208,0.33208 0.59786,2.58152 0.6909,5.8476 0.0926,3.24909 0.0811,3.42955 -0.34818,5.46677 -0.24414,1.15873 -0.49588,2.19091 -0.55944,2.29374 -0.0827,0.13381 -2.45282,0.25099 -8.33761,0.41218 -4.52214,0.12387 -12.63879,0.36969 -18.037,0.54627 -8.92195,0.29182 -26.27657,0.41968 -27.78507,0.20469 z m 21.87695,-51.4176 c -4.0455,-0.61787 -9.00605,-2.57921 -13.9975,-5.53445 -3.5379,-2.09465 -9.88718,-6.50812 -10.1979,-7.0887 -0.2866,-0.53551 -0.0592,-13.27861 0.24236,-13.58014 0.1462,-0.14621 1.52413,0.28425 3.05247,0.95356 1.96419,0.86019 4.28923,2.16873 7.52572,4.23551 10.13486,6.47197 13.85722,7.93149 19.63978,7.70067 4.07098,-0.16251 6.41014,-0.86635 15.53812,-4.67536 3.68182,-1.53639 7.72009,-2.92959 8.89484,-3.06872 0.6405,-0.0759 0.76363,-0.0448 0.83849,0.21133 0.0483,0.16514 0.13645,2.02825 0.19595,4.14025 0.0883,3.13513 0.0582,4.25043 -0.16414,6.07592 -0.14978,1.22976 -0.335,2.35303 -0.4116,2.49615 -0.14041,0.26235 -4.96567,2.4387 -8.95624,4.03955 -4.67579,1.87573 -8.63876,3.08308 -12.4773,3.80131 -2.08984,0.39103 -7.92933,0.56707 -9.72305,0.29312 z M 97.2,124.01269 c -0.66,-0.24846 -2.568,-1.10111 -4.24,-1.89479 -4.05771,-1.92614 -5.29131,-2.3145 -7.36,-2.31704 -2.09497,-0.003 -3.44766,0.40304 -7.59832,2.27838 -3.41878,1.54467 -5.42915,2.28796 -5.97704,2.20988 -0.31823,-0.0454 -0.35441,-0.17784 -0.47207,-1.72912 -0.17817,-2.34877 -0.002,-7.69957 0.26283,-7.96397 0.4736,-0.4736 3.69734,-2.37373 5.6246,-3.31524 5.54052,-2.70668 9.26059,-2.78351 15.12,-0.31228 2.17452,0.91712 6.22812,3.13004 6.44568,3.51881 0.19906,0.35569 0.3722,8.14227 0.20573,9.25235 -0.13532,0.90237 -0.28549,0.92276 -2.01141,0.27302 z M 78.8,80.318206 C 73.20264,79.551195 68.76664,77.324818 66.26226,74.025656 64.73821,72.017941 63.94398,70.046558 63.51236,67.2 c -0.41737,-2.752582 -0.19669,-5.622162 0.63373,-8.240666 1.48421,-4.68006 5.7386,-7.671036 11.76288,-8.269697 2.01556,-0.200296 4.603,-0.02147 5.04936,0.348979 0.20678,0.17161 0.24472,1.046642 0.26278,6.060974 0.0116,3.223226 0.0656,7.80441 0.12,10.18041 l 0.0989,4.32 1.52,-0.01926 c 4.30489,-0.05454 7.29385,-2.058112 8.42109,-5.644832 0.34182,-1.087595 0.45163,-3.443947 0.2326,-4.991131 -0.23339,-1.648696 -0.96187,-4.45696 -1.61724,-6.234421 -0.50799,-1.377759 -0.51804,-1.832869 -0.0372,-1.687563 0.15443,0.04667 1.82035,0.305292 3.70202,0.574713 1.88168,0.269421 3.47793,0.524893 3.54722,0.567717 0.13682,0.08456 0.64713,2.227259 1.04667,4.394776 0.14028,0.761005 0.28893,2.734166 0.3375,4.48 0.0983,3.533619 -0.1541,5.900563 -0.8531,8 -1.56963,4.71432 -5.59473,7.89157 -11.46319,9.048589 -1.53796,0.303223 -5.95027,0.438737 -7.47633,0.229618 z M 76.56,65.194979 c 0,-5.238022 -0.0312,-6.017 -0.24438,-6.0988 -0.37004,-0.141997 -2.49337,0.21509 -3.48488,0.586061 -1.17071,0.438018 -2.21472,1.382749 -2.68728,2.431731 -0.31932,0.708811 -0.38132,1.105535 -0.3823,2.446029 -9.6e-4,1.398334 0.0518,1.710917 0.4189,2.48 0.55147,1.155296 1.43492,2.151206 2.52927,2.851256 0.89003,0.569346 2.81792,1.288208 3.49067,1.301586 l 0.36,0.0072 z"
     style="fill:#ff6600;stroke-width:0.16"
     inkscape:export-filename="C:\Users\Rafael Jaime\Documents\desarrollo\ng6\m2mdas\src\assets\images\logo.png"
     inkscape:export-xdpi="160.02"
     inkscape:export-ydpi="160.02" />
  <path
     inkscape:connector-curvature="0"
     id="path5109"
     d="m 27.92,299.75742 c -3.95543,-0.8082 -7.02955,-3.47027 -7.94197,-6.87742 -0.17815,-0.66526 -0.21455,-23.05898 -0.21613,-132.96638 -0.002,-118.230135 0.024,-132.265679 0.24337,-133.108026 0.38251,-1.468564 0.99722,-2.458799 2.38945,-3.849138 1.47142,-1.46943 2.90334,-2.274157 4.97973,-2.798563 1.26062,-0.318379 1.77799,-0.319466 132.86555,-0.278759 l 131.6,0.04087 1.28,0.45055 c 3.4072,1.199306 6.01661,3.877114 6.62373,6.797325 0.12753,0.613453 0.17627,37.332192 0.17627,132.806381 0,116.45267 -0.0281,132.06617 -0.23867,132.87481 -0.89629,3.44107 -3.92805,6.06994 -7.95458,6.89747 -1.11979,0.23013 -13.26502,0.25208 -132,0.23842 C 51.68391,299.97246 28.77927,299.93306 27.92,299.75742 Z m 263.73034,-1.434 c 2.67328,-0.56644 5.05838,-2.32476 6.15027,-4.53403 L 298.4,292.57659 298.4418,160.2483 298.4836,27.92 298.15875,26.845238 c -0.45078,-1.491392 -1.51785,-2.855627 -3.03883,-3.885104 -1.57334,-1.06492 -2.97304,-1.515516 -5.28,-1.699758 -1.10334,-0.08812 -53.75848,-0.129618 -131.52,-0.103662 L 28.64,21.2 27.44114,21.57133 c -2.64756,0.820046 -4.60495,2.362827 -5.61454,4.425305 L 21.28,27.113272 V 159.91664 292.72 l 0.53368,1.06317 c 1.07977,2.15107 3.54273,3.97744 6.10632,4.52803 1.59462,0.34248 262.11467,0.35456 263.73034,0.0122 z M 136.88,271.84754 c -0.21022,-0.1365 -0.24993,-2.40506 -0.32,-18.28168 L 136.48,235.44 123.85522,235.399 c -9.28118,-0.0301 -12.68394,-0.0901 -12.84817,-0.22636 -0.12709,-0.10548 -0.20263,-0.3982 -0.17522,-0.67903 L 110.88,234 h 13.52 13.52 l 0.0407,17.08 c 0.0267,11.19757 0.0956,17.08 0.19996,17.08 0.18268,0 53.91932,-107.39491 53.91932,-107.76 0,-0.3651 -53.73664,-107.76 -53.91933,-107.76 -0.1044,0 -0.17325,5.909123 -0.19995,17.16 l -0.0407,17.16 -13.34249,0.04092 c -10.0082,0.0307 -13.39889,-0.0059 -13.56817,-0.146371 -0.12931,-0.107314 -0.20511,-0.398093 -0.17751,-0.680925 L 110.88,85.68 l 12.8,-0.08 12.8,-0.08 0.0407,-18.100974 c 0.0322,-14.30418 0.0829,-18.136004 0.2419,-18.267972 0.11067,-0.09185 0.41637,-0.190409 0.67932,-0.219025 L 137.92,48.88 l 9.2,18.32 9.2,18.32 4.41834,0.04249 c 3.57388,0.03437 4.45292,8e-4 4.59931,-0.175563 0.13173,-0.158728 0.19205,-5.129917 0.22166,-18.270986 l 0.0407,-18.052931 0.45354,-0.12129 c 0.24945,-0.06671 0.53752,-0.08906 0.64016,-0.04968 0.10264,0.03939 4.03296,8.224791 8.73403,18.189784 4.70105,9.964994 8.61581,18.20817 8.69942,18.31817 0.22987,0.302402 9.44096,0.287611 9.69256,-0.01557 0.12901,-0.155437 0.19026,-5.251093 0.2196,-18.268493 l 0.0407,-18.052931 0.45354,-0.12129 c 0.24945,-0.06671 0.53907,-0.08847 0.6436,-0.04836 0.10454,0.04012 3.46027,7.001519 7.45718,15.469784 3.99691,8.468267 7.89717,16.712051 8.66726,18.319522 l 1.40015,2.922675 4.20913,-0.04268 4.20914,-0.04267 0.0407,-18.100974 c 0.032,-14.217786 0.0834,-18.134648 0.24,-18.257938 0.10961,-0.08633 0.39512,-0.203712 0.63443,-0.260849 0.34446,-0.08224 0.48203,-0.02851 0.66032,0.257939 0.52853,0.849166 52.48702,111.074551 52.468,111.306261 -0.0149,0.18046 -49.30744,104.75086 -52.29306,110.93557 -0.30662,0.63515 -0.73203,0.77092 -1.36089,0.43436 -0.30319,-0.16225 -0.30949,-0.53505 -0.30949,-18.32 V 235.36 h -4.22042 c -3.18235,0 -4.26067,0.0492 -4.38409,0.2 -0.0901,0.11 -3.81551,7.94 -8.27882,17.4 -4.46331,9.46 -8.3235,17.614 -8.57819,18.12 -0.48208,0.95774 -0.76749,1.1084 -1.42899,0.75436 C 194.00634,271.67212 194,271.30217 194,253.76745 c 0,-9.84571 -0.0437,-18.01517 -0.0971,-18.15437 -0.0856,-0.22299 -0.6669,-0.25308 -4.88744,-0.25308 h -4.79032 l -0.25088,0.44 c -0.13798,0.242 -4.04112,8.468 -8.67363,18.28 -8.97527,19.01025 -8.56504,18.23929 -9.45235,17.76441 -0.32799,-0.17553 -0.32826,-0.19017 -0.33071,-18.13005 -0.002,-9.87489 -0.0603,-18.04553 -0.13104,-18.15694 -0.0998,-0.15725 -1.12889,-0.19306 -4.59755,-0.16 l -4.46896,0.0426 -9.13941,18.24 c -8.79679,17.55619 -9.15669,18.24156 -9.6,18.28168 -0.25333,0.0229 -0.56859,-0.0284 -0.70059,-0.11415 z m 55.68136,-57.64943 C 206.46461,184.74936 217.84,160.54765 217.84,160.41653 c 0,-0.13112 -11.13336,-23.80449 -24.7408,-52.60747 -13.60744,-28.802983 -25.02096,-52.973538 -25.36338,-53.712345 -0.34243,-0.738806 -0.67507,-1.290822 -0.7392,-1.226702 -0.0641,0.06412 -0.15262,7.760598 -0.19662,17.103285 L 166.72,86.96 l -4.76,0.04238 c -2.618,0.02331 -4.76044,0.09531 -4.76098,0.16 -4.8e-4,0.06469 8.20746,16.50698 18.24,36.53841 10.03253,20.03143 18.24098,36.5375 18.24098,36.68014 0,0.14264 -8.20992,16.67905 -18.24426,36.7476 -10.03435,20.06853 -18.2021,36.55646 -18.15056,36.63985 0.0556,0.0899 2.01012,0.15162 4.80426,0.15162 H 166.8 v 16.78691 c 0,9.2328 0.0456,16.90565 0.10125,17.05075 0.0579,0.15093 0.1612,0.20389 0.24136,0.12373 0.0771,-0.077 11.5155,-24.23454 25.41875,-53.68328 z m 28.53312,-0.10056 c 13.87403,-29.3871 25.22552,-53.54342 25.22552,-53.68072 0,-0.2647 -50.48786,-107.269641 -50.73504,-107.52883 -0.0867,-0.09087 -0.14496,6.621811 -0.14496,16.690518 0,11.303999 -0.0545,16.94429 -0.16563,17.152 -0.15837,0.295909 -0.38642,0.309482 -5.2,0.309482 -3.72935,0 -5.03437,0.04839 -5.03437,0.186686 0,0.102677 7.75256,16.599234 17.2279,36.659024 15.50493,32.82472 17.21136,36.51443 17.06261,36.89331 -0.0909,0.23154 -7.84347,16.67812 -17.2279,36.54796 -9.38443,19.86982 -17.06261,36.23182 -17.06261,36.36 0,0.19916 0.74147,0.23302 5.10288,0.23302 4.50557,0 5.11426,0.0296 5.2,0.25309 0.0534,0.1392 0.0994,7.8252 0.10221,17.08 0.004,13.89865 0.0415,16.77894 0.21448,16.55123 0.11517,-0.15163 11.56088,-24.31968 25.43491,-53.70677 z m 2.17165,53.14245 c 0.20344,-0.418 11.63581,-24.62218 25.40523,-53.78706 20.6448,-43.72747 25.00866,-53.08544 24.88315,-53.36 -2.188,-4.78638 -50.53888,-106.965151 -50.69248,-107.127226 -0.18945,-0.199909 -0.22203,2.268462 -0.22203,16.822883 0,15.406307 -0.0245,17.066566 -0.25309,17.154285 -0.1392,0.05342 -2.1912,0.09712 -4.56,0.09712 -3.086,0 -4.30691,0.05107 -4.30691,0.180166 0,0.09909 7.74878,16.585602 17.21952,36.636682 10.22616,21.65043 17.1873,36.57158 17.14016,36.73984 -0.0437,0.15582 -7.79243,16.61553 -17.21952,36.57715 -9.42709,19.96162 -17.14016,36.3945 -17.14016,36.5175 0,0.18528 0.77587,0.23096 4.52,0.26616 l 4.52,0.0425 0.0407,17 c 0.0224,9.35 0.0981,17 0.16813,17 0.0701,0 0.29384,-0.342 0.49728,-0.76 z M 97.6,268.40426 c -2.69234,-2.72412 -4.50684,-4.15164 -6.77651,-5.33133 -4.91386,-2.55403 -7.90585,-2.41189 -16.35964,0.77718 -6.63242,2.50199 -9.07272,3.09127 -12.78385,3.08703 -4.09908,-0.005 -7.39576,-1.11287 -11.52,-3.87245 -2.16784,-1.45053 -5.10393,-3.80704 -5.28795,-4.24411 -0.55874,-1.32716 -0.94464,-9.39271 -0.64875,-13.55959 0.20337,-2.86398 0.29349,-3.50099 0.49527,-3.50099 0.0732,0 1.02152,0.90755 2.10729,2.01678 3.17225,3.24079 5.214,4.81396 7.89785,6.0853 2.34567,1.11117 3.58625,1.38352 6.31629,1.38672 3.4895,0.004 5.15606,-0.43301 10.90991,-2.86142 5.60414,-2.36524 7.91486,-2.98551 11.08988,-2.97687 3.95315,0.0107 6.55345,1.1301 13.04021,5.61335 1.54,1.06435 2.88424,2.0614 2.9872,2.21566 0.25234,0.3781 0.97958,3.6985 1.28675,5.87502 0.44459,3.15024 0.32106,11.80392 -0.1676,11.74175 -0.10249,-0.0131 -1.26635,-1.11645 -2.58635,-2.45203 z m -48.61263,-64.3858 -3.65263,-0.0985 -0.53208,-0.58096 c -0.77008,-0.84083 -0.93626,-1.84474 -0.95003,-5.73904 -0.01,-2.84142 0.0391,-3.5329 0.36738,-5.17138 0.31975,-1.59577 0.43219,-1.91107 0.71949,-2.0174 0.41448,-0.15343 6.477,-0.70695 12.3405,-1.12672 9.7395,-0.69727 18.28342,-0.89996 27.84,-0.66045 9.59887,0.24056 14.67529,0.48403 14.91855,0.71553 0.31057,0.29556 0.66545,3.09807 0.77127,6.09084 0.092,2.60161 0.0743,2.83707 -0.3774,5.02233 -0.26066,1.26101 -0.53658,2.35055 -0.61317,2.4212 -0.0766,0.0706 -3.41525,0.21303 -7.41925,0.3164 -4.004,0.10338 -11.528,0.32898 -16.72,0.50136 -10.45004,0.34693 -21.10543,0.47738 -26.69263,0.32675 z M 68.4,152.6368 c -5.79561,-0.80748 -11.61393,-3.36155 -19.04,-8.35799 -2.62318,-1.76493 -5.63945,-3.93992 -5.791,-4.17581 -0.28421,-0.44236 -0.32025,-2.70823 -0.12593,-7.91838 0.15739,-4.2201 0.26174,-5.67488 0.41114,-5.73221 0.32357,-0.12417 3.43919,1.19002 5.55165,2.3417 1.07478,0.58596 3.61014,2.11181 5.63414,3.39078 6.32569,3.99724 8.18635,4.99488 11.40546,6.11538 4.14343,1.44224 7.76505,1.54195 12.42807,0.34217 2.38042,-0.61247 4.61871,-1.43809 10.10872,-3.72875 5.23316,-2.18349 9.64553,-3.63986 9.97603,-3.29275 0.23451,0.24629 0.47403,7.07303 0.31137,8.87459 -0.22041,2.44124 -0.45804,3.87923 -0.67665,4.09469 -0.10615,0.10462 -1.705,0.8511 -3.553,1.65884 -8.29292,3.62474 -13.51435,5.34073 -18.75004,6.16206 -1.88969,0.29643 -6.4466,0.42678 -7.88996,0.22568 z m 29.32017,-28.47683 c -0.46191,-0.1652 -2.44191,-1.05253 -4.4,-1.97183 -4.3027,-2.02008 -5.30951,-2.35811 -7.32017,-2.4577 -2.16868,-0.10741 -3.76851,0.34333 -7.94047,2.23721 -3.83288,1.73994 -5.89706,2.45997 -6.2389,2.17627 C 71.64267,123.99623 71.6,123.08811 71.6,119.4483 c 0,-5.27946 -0.27922,-4.57573 2.48,-6.25055 7.68163,-4.66269 12.23285,-5.05858 19.50115,-1.6963 1.63227,0.75508 5.17102,2.69172 5.30009,2.90056 0.22783,0.36863 0.401,4.78677 0.2852,7.27613 -0.14309,3.076 -0.0813,2.97002 -1.44627,2.48183 z M 78.64,80.213168 C 70.3814,78.907218 65.55778,75.219701 63.91978,68.96 c -0.44892,-1.715587 -0.61619,-5.499714 -0.32407,-7.331341 0.74854,-4.693264 2.84252,-7.555206 6.92901,-9.4702 2.24485,-1.051973 3.73986,-1.344238 6.91528,-1.351897 1.496,-0.0036 2.9065,0.04592 3.13445,0.110075 l 0.41445,0.116635 0.10555,3.389162 c 0.058,1.86404 0.10555,6.395664 0.10555,10.070278 0,3.674614 0.0437,6.795005 0.0971,6.934202 0.0789,0.205496 0.37491,0.253086 1.57441,0.253086 4.77038,0 8.05742,-2.565141 8.82193,-6.884453 0.4017,-2.269561 -0.0183,-5.17472 -1.33448,-9.229859 -0.40673,-1.253166 -0.70053,-2.317475 -0.65287,-2.36513 0.0476,-0.04765 1.72432,0.148727 3.72593,0.4364 3.02746,0.435109 3.66558,0.572127 3.79566,0.815007 0.31001,0.578835 1.0711,4.764989 1.26051,6.933064 0.30957,3.543392 -0.0242,7.165499 -0.90343,9.804584 -1.55874,4.678544 -5.75776,7.854096 -11.73297,8.873165 -1.39399,0.237744 -6.04594,0.334752 -7.21181,0.15039 z m -2,-15.01536 V 59.12 l -0.87172,-0.04946 c -1.78051,-0.101026 -4.1853,0.823811 -5.03343,1.935766 -2.2758,2.983736 -1.01803,7.577402 2.55313,9.324611 0.98668,0.482733 2.72787,1.029555 3.11202,0.97733 0.20855,-0.02835 0.24,-0.829107 0.24,-6.110437 z"
     style="fill:#ff6600;stroke-width:0.16"
     inkscape:export-filename="C:\Users\Rafael Jaime\Documents\desarrollo\ng6\m2mdas\src\assets\images\logo.png"
     inkscape:export-xdpi="160.02"
     inkscape:export-ydpi="160.02" />
  <path
     inkscape:connector-curvature="0"
     id="path5107"
     d="m 29.0219,299.8391 c -4.42438,-0.42571 -8.12822,-3.40065 -9.0197,-7.24464 -0.21693,-0.93537 -0.23895,-15.3946 -0.20278,-133.18187 L 19.84,27.28 20.18872,26.367741 c 1.30829,-3.422525 4.36624,-5.764357 8.31394,-6.366965 0.75935,-0.115912 41.43385,-0.154149 132.05734,-0.124141 l 130.96,0.04337 1.44784,0.506176 c 3.34674,1.170043 5.46723,3.123867 6.5031,5.991973 L 299.84,27.44 299.8834,159.2 c 0.0297,90.15064 -0.009,132.1137 -0.12214,132.88 -0.50768,3.43565 -3.4065,6.35002 -7.44122,7.48115 l -1.28,0.35885 -130.4,0.0182 c -71.72,0.01 -130.94815,-0.0346 -131.6181,-0.0991 z M 292,298.3576 c 3.48104,-1.02403 5.9356,-3.4059 6.46587,-6.27445 0.23656,-1.27963 0.24834,-263.165291 0.0118,-264.421312 -0.49573,-2.633387 -2.77353,-4.988761 -5.82521,-6.02355 L 291.36,21.2 160.4,21.156574 C 42.03294,21.117324 29.31962,21.137254 28.1881,21.363856 24.67536,22.06732 22.06007,24.310899 21.28527,27.285594 21.06587,28.127899 21.04,42.119405 21.04,159.92 c 0,118.14824 0.0254,131.79085 0.24677,132.64638 0.79355,3.0665 3.88816,5.49639 7.61824,5.98183 0.55824,0.0726 59.76699,0.12302 131.57499,0.11193 124.26344,-0.0192 130.6063,-0.0338 131.52,-0.30254 z m -154.92,-26.52067 -0.36,-0.14663 v -18.07952 c 0,-17.71094 -0.006,-18.08289 -0.30948,-18.24515 -0.20581,-0.11014 -4.5238,-0.16563 -12.88966,-0.16563 h -12.58018 l 0.0497,-0.6 0.0497,-0.6 13.26249,-0.0409 c 9.66552,-0.0298 13.32147,0.008 13.48,0.13959 0.18087,0.15011 0.21751,3.06454 0.21751,17.30052 0,13.67964 0.0402,17.08597 0.2,16.95068 0.11,-0.0931 12.32297,-24.42005 27.13994,-54.05983 l 26.93992,-53.89051 -26.97997,-53.95976 C 150.46089,76.761893 138.24825,52.48 138.16067,52.48 c -0.1044,0 -0.17325,5.909112 -0.19995,17.16 l -0.0407,17.16 -13.48971,0.04091 -13.48972,0.04091 0.0497,-0.600911 0.0497,-0.60091 12.8,-0.08 12.8,-0.08 0.0407,-18.150982 c 0.032,-14.277108 0.0832,-18.177994 0.24,-18.277549 0.10962,-0.06961 0.37931,-0.127618 0.59931,-0.128901 0.37148,-0.0022 1.05324,1.30395 9.56251,18.32 l 9.16251,18.322331 4.59749,-0.04245 4.59749,-0.04245 0.0407,-18.114736 c 0.0406,-18.069976 0.0415,-18.11517 0.36825,-18.290046 0.84508,-0.452271 0.49898,-1.107098 9.60056,18.164782 l 8.61424,18.24 h 4.92813 4.92813 l 0.0407,-18.114736 c 0.0406,-18.069976 0.0415,-18.11517 0.36825,-18.290046 0.84495,-0.452204 0.57778,-0.947647 8.24237,15.284782 3.98898,8.448 7.87915,16.674 8.64485,18.28 l 1.39216,2.92 h 4.27872 c 3.75403,0 4.29064,-0.03103 4.37584,-0.253086 0.0534,-0.139197 0.0971,-8.345826 0.0971,-18.236952 V 49.126096 l 0.42477,-0.106608 c 0.23361,-0.05864 0.52792,-0.04154 0.654,0.03799 0.21485,0.135531 52.4356,110.490372 52.6124,111.182522 0.0537,0.21022 -8.93779,19.41973 -26.21223,56 -25.00033,52.94064 -26.31326,55.67794 -26.68644,55.6381 -0.21588,-0.023 -0.4825,-0.0748 -0.5925,-0.11498 -0.15837,-0.0579 -0.2,-3.80582 -0.2,-18.00862 0,-12.05744 -0.0543,-18.03696 -0.16563,-18.24501 -0.15719,-0.29373 -0.37623,-0.30949 -4.3004,-0.30949 -3.11312,0 -4.17557,0.0494 -4.29986,0.2 -0.0908,0.11 -3.98793,8.29776 -8.66033,18.19502 -4.67239,9.89727 -8.58584,18.0856 -8.69655,18.19632 -0.13585,0.13586 -0.35669,0.15973 -0.67926,0.0735 l -0.47797,-0.12783 -0.0407,-18.13949 c -0.032,-14.26792 -0.0832,-18.16648 -0.24,-18.26603 -0.10961,-0.0696 -2.29649,-0.12768 -4.85973,-0.12902 -3.61064,-0.002 -4.69896,0.044 -4.83155,0.20377 -0.0941,0.11344 -3.9935,8.30341 -8.66525,18.19996 -4.67176,9.89654 -8.58246,18.08208 -8.69046,18.19008 -0.13104,0.13102 -0.35544,0.15384 -0.67435,0.0686 l -0.47797,-0.12783 -0.0407,-18.18561 -0.0407,-18.18562 -0.35933,-0.0878 c -0.19761,-0.0483 -2.26731,-0.0676 -4.59931,-0.0429 l -4.24,0.0449 -9.2,18.32 c -5.62206,11.19525 -9.29334,18.33235 -9.44,18.35178 -0.132,0.0175 -0.402,-0.0342 -0.6,-0.11485 z m 84.10653,-57.73991 25.32665,-53.66296 -0.37659,-0.8096 C 240.0689,146.58012 195.60424,52.721414 195.47131,52.677106 c -0.14552,-0.04851 -0.19937,3.928118 -0.23059,17.029803 L 195.2,86.8 l -5.03432,0.04233 c -2.76888,0.02328 -5.09902,0.107019 -5.1781,0.18609 -0.085,0.08501 6.90525,15.06725 17.10639,36.66409 9.48758,20.08617 17.24056,36.63443 17.22883,36.77391 -0.0117,0.13947 -7.76614,16.65604 -17.23205,36.70352 -9.46592,20.04745 -17.21075,36.51646 -17.21075,36.59777 0,0.0866 2.13971,0.16536 5.16,0.19007 l 5.16,0.0422 0.0396,16.96 c 0.0218,9.328 0.0783,17.06243 0.12558,17.18763 0.0681,0.18029 0.12851,0.16365 0.29037,-0.08 0.11238,-0.1692 11.60134,-24.45597 25.53101,-53.97061 z m 27.20827,0.11762 c 16.35131,-34.63378 25.28958,-53.73787 25.24469,-53.95637 C 273.53168,159.73362 222.90427,52.64 222.76406,52.64 c -0.0682,0 -0.12406,7.590112 -0.12406,16.866914 0,9.276803 -0.0437,16.980803 -0.0971,17.12 -0.0853,0.222393 -0.6372,0.253086 -4.55056,0.253086 -2.79019,0 -4.49029,0.05963 -4.55211,0.159667 -0.0543,0.08782 7.65121,16.557813 17.12333,36.600003 9.47209,20.04218 17.22348,36.58433 17.22531,36.76033 0.002,0.176 -7.74392,16.72507 -17.21277,36.7757 -9.46885,20.05064 -17.21608,36.52064 -17.21608,36.6 0,0.0823 1.91192,0.1443 4.448,0.1443 3.24622,0 4.49987,0.0519 4.64,0.192 0.14686,0.14686 0.1932,4.1995 0.19709,17.24 0.004,14.3156 0.0396,17.00254 0.2203,16.76437 0.11835,-0.156 11.60659,-24.41178 25.52941,-53.90173 z M 167.57808,267.24 c 0.25446,-0.506 11.71053,-24.74701 25.45789,-53.86891 l 24.99523,-52.94891 -0.42168,-0.8911 c -0.23194,-0.49009 -11.67466,-24.71898 -25.42827,-53.84197 -13.75362,-29.122988 -25.09056,-52.97888 -25.19319,-53.013091 -0.1412,-0.04706 -0.19652,4.097301 -0.22734,17.03089 L 166.72,86.8 l -4.68595,0.04243 c -4.20271,0.03805 -4.69651,0.06994 -4.78833,0.309211 -0.0669,0.17423 6.24425,12.926059 18.19199,36.757569 L 193.73208,160.4 175.38387,197.08419 c -12.24987,24.49159 -18.28101,36.70922 -18.14603,36.75947 0.11119,0.0414 2.29016,0.0935 4.84216,0.11581 l 4.64,0.0405 0.0407,17.08 c 0.0263,11.03275 0.0963,17.08 0.1977,17.08 0.0863,0 0.36518,-0.414 0.61966,-0.92 z M 98.4,269.0037 c -4.26113,-4.52437 -8.66579,-7.21031 -12.63156,-7.70266 -1.549,-0.19232 -3.52393,0.002 -5.65227,0.55438 -1.3604,0.35346 -2.62229,0.79304 -8.03617,2.79938 -9.25246,3.42888 -14.91009,2.98867 -21.93819,-1.70694 -1.71164,-1.1436 -4.44368,-3.26568 -5.00346,-3.8864 -0.48722,-0.54028 -0.93211,-4.90648 -0.94774,-9.30146 -0.0112,-3.14603 0.24631,-7.51141 0.46384,-7.86339 0.0408,-0.066 1.17022,0.97877 2.50986,2.32168 2.76007,2.76685 4.63312,4.23777 6.83569,5.36811 2.45974,1.26234 3.86084,1.64141 6.4,1.7316 3.62529,0.12875 5.93031,-0.44472 11.76,-2.92574 5.53567,-2.35589 8.41715,-3.07813 11.58869,-2.90466 3.11349,0.17029 5.69097,1.20547 9.85131,3.95659 3.87027,2.55928 5.36777,3.67543 5.54051,4.12952 0.31752,0.83469 0.94829,4.07615 1.18203,6.07434 0.37938,3.24321 0.27543,11.08417 -0.14667,11.06321 -0.0967,-0.005 -0.89587,-0.7732 -1.77587,-1.70756 z M 45.68302,203.83627 c -0.67657,-0.1591 -1.18394,-0.76053 -1.46937,-1.74177 -0.35152,-1.20847 -0.2932,-7.86192 0.0853,-9.72983 0.16442,-0.81142 0.38042,-1.58153 0.48,-1.71136 0.1336,-0.17416 1.06178,-0.3208 3.54106,-0.55942 10.71341,-1.03114 19.19401,-1.45317 29.2,-1.45314 8.72802,5e-5 22.24441,0.43032 22.53134,0.71727 0.26168,0.26168 0.53106,2.78422 0.61531,5.76198 0.0917,3.24053 0.0795,3.43395 -0.34384,5.44 -0.24139,1.144 -0.4959,2.14152 -0.56557,2.2167 -0.0697,0.0752 -3.78754,0.23644 -8.26195,0.35831 -4.47441,0.12187 -12.56329,0.36646 -17.97529,0.54357 -10.05274,0.32896 -26.70748,0.42329 -27.83698,0.15769 z m 21.95393,-51.37022 c -5.97909,-0.91319 -12.47735,-4.08268 -21.35668,-10.41663 -1.99191,-1.4209 -2.70682,-2.01949 -2.78527,-2.33208 -0.12077,-0.48116 0.0519,-10.43818 0.20964,-12.09243 l 0.10445,-1.09509 0.47297,0.0946 c 0.90209,0.18042 3.9484,1.56304 5.87209,2.66514 1.06339,0.60924 3.38974,2.03421 5.16965,3.16661 9.07267,5.77214 12.89717,7.22539 18.49051,7.02605 3.647,-0.12997 6.96318,-1.05315 13.22329,-3.68119 4.66771,-1.95953 7.18428,-2.92518 9.25169,-3.55002 2.04221,-0.61722 2.59109,-0.68927 2.71864,-0.35687 0.0452,0.11777 0.13185,1.97177 0.19257,4.12 0.0891,3.1538 0.0604,4.30637 -0.14943,5.98587 -0.1429,1.144 -0.29508,2.19459 -0.33818,2.33464 -0.13908,0.45198 -9.32327,4.34255 -13.75289,5.82595 -5.39444,1.8065 -8.24241,2.33886 -12.88,2.40764 -1.892,0.0281 -3.89137,-0.0179 -4.44305,-0.10218 z M 97.2,123.85215 c -0.66,-0.24876 -2.424,-1.04139 -3.92,-1.76139 -6.78062,-3.26343 -8.55776,-3.29242 -15.12333,-0.24677 -2.81981,1.30806 -4.86463,2.11193 -5.72021,2.24874 l -0.64084,0.10247 -0.11479,-2.6176 c -0.0631,-1.43968 -0.0532,-3.57931 0.0222,-4.75474 l 0.13698,-2.13714 1.76,-1.10636 c 0.968,-0.6085 2.624,-1.53477 3.68,-2.05837 5.44307,-2.69886 9.11947,-2.8568 14.70571,-0.63177 1.85023,0.73696 6.22984,3.02429 6.72161,3.51048 0.28367,0.28044 0.31301,0.62963 0.38107,4.5347 0.0799,4.58406 0.0176,5.39018 -0.41564,5.37782 -0.15001,-0.004 -0.81275,-0.21131 -1.47275,-0.46007 z M 78.8,80.147558 C 76.24859,79.824059 73.42628,78.993774 71.36,77.958811 69.81969,77.187298 68.98551,76.596952 67.70168,75.369816 65.39872,73.168573 64.21276,70.763922 63.67236,67.2 c -0.55174,-3.638747 0.0646,-7.731162 1.56635,-10.4 0.27234,-0.484 1.07704,-1.458147 1.78823,-2.164771 2.09448,-2.08105 4.90566,-3.323995 8.50046,-3.758423 1.61405,-0.195057 4.39629,-0.109145 5.09736,0.1574 l 0.36314,0.138066 0.11163,10.20787 c 0.0845,7.722365 0.15897,10.241015 0.30605,10.343997 0.2831,0.198223 3.07513,0.0086 4.19442,-0.284795 6.30859,-1.653906 7.92759,-7.585958 4.56177,-16.714536 -0.50365,-1.365979 -0.51072,-1.621776 -0.0416,-1.505261 0.15392,0.03823 1.74905,0.280277 3.54475,0.537887 1.7957,0.257608 3.33365,0.537124 3.41767,0.621148 0.18106,0.181052 0.47393,1.36966 0.93173,3.781418 0.48204,2.539419 0.59883,7.36397 0.2376,9.81551 -0.50153,3.403786 -1.41109,5.431117 -3.37191,7.515756 -1.29785,1.379804 -2.47658,2.222953 -4.30661,3.080537 -3.08615,1.446218 -7.80932,2.078368 -11.77339,1.575755 z M 76.72,65.194979 c 0,-5.492254 -0.0278,-6.175694 -0.25487,-6.262824 -0.39751,-0.152541 -2.63142,0.214826 -3.67059,0.603629 -1.18208,0.442272 -2.3196,1.488443 -2.81617,2.590014 -0.31366,0.695816 -0.37623,1.099626 -0.37721,2.434202 -9.6e-4,1.40481 0.0515,1.712286 0.43018,2.520422 0.51091,1.090199 1.79475,2.50037 2.82727,3.105469 0.85308,0.499939 2.77801,1.156483 3.42139,1.166951 l 0.44,0.0072 z"
     style="fill:#ff6600;stroke-width:0.16"
     inkscape:export-filename="C:\Users\Rafael Jaime\Documents\desarrollo\ng6\m2mdas\src\assets\images\logo.png"
     inkscape:export-xdpi="160.02"
     inkscape:export-ydpi="160.02" />
  <path
     inkscape:connector-curvature="0"
     id="path5105"
     d="m 27.92,299.60018 c -1.54796,-0.3122 -2.75912,-0.81727 -4.08262,-1.70247 -1.84511,-1.23408 -3.17026,-3.02606 -3.69496,-4.99665 C 19.95844,292.2101 19.9235,271.12422 19.9219,159.81685 19.9199,28.808005 19.9229,27.544064 20.23426,26.536854 21.05725,23.87389 23.4063,21.627597 26.49581,20.549194 L 27.84,20.08 159.28,20.0334 c 96.93013,-0.03436 131.69205,6.4e-4 132.4,0.133557 3.81147,0.715264 6.96611,3.422286 7.84758,6.734067 0.35444,1.331703 0.3477,264.589166 -0.007,265.950236 -0.87956,3.37688 -3.82099,5.91874 -7.79401,6.73528 -1.11979,0.23013 -13.26503,0.25208 -132,0.23842 -107.17459,-0.0123 -130.95438,-0.0529 -131.80675,-0.22478 z m 264.64,-1.31594 c 2.48086,-0.84866 4.37448,-2.41862 5.38611,-4.46554 l 0.61389,-1.24211 0.0464,-132.24829 c 0.0431,-122.768436 0.0274,-132.320313 -0.21902,-133.252918 -0.7009,-2.652636 -3.3249,-4.967819 -6.46741,-5.706267 -0.92826,-0.218125 -15.12946,-0.24464 -132.16322,-0.24675 L 28.63357,21.12 27.43792,21.45133 c -0.6576,0.182232 -1.62815,0.55831 -2.15678,0.835728 -1.38398,0.726302 -3.00302,2.387678 -3.64238,3.737632 L 21.12,27.12 21.0796,159.59805 21.0392,292.0761 l 0.3335,1.00216 c 0.84888,2.55088 3.50031,4.72891 6.56821,5.39547 0.86375,0.18768 21.02588,0.21721 132.29906,0.19384 L 291.52,298.64 Z M 136.90699,271.63253 c -0.13786,-0.16613 -0.19608,-4.87071 -0.2263,-18.2881 L 136.64,235.28 l -12.8,-0.08 -12.8,-0.08 v -0.48 -0.48 l 13.39928,-0.0409 13.39928,-0.0409 0.0407,17.20092 c 0.0267,11.29992 0.0956,17.21464 0.20072,17.24092 0.18104,0.0452 54.13758,-107.64634 54.1512,-108.08012 0.0149,-0.47306 -53.90122,-108.149892 -54.11696,-108.077993 -0.15005,0.05001 -0.21244,3.974741 -0.27424,17.251416 L 137.76,86.8 H 124.4 111.04 v -0.48 -0.48 l 12.8,-0.0824 c 7.04,-0.04532 12.818,-0.09932 12.84,-0.12 0.022,-0.02068 0.04,-8.211387 0.04,-18.201565 V 49.27208 l 0.41042,-0.15604 c 0.22572,-0.08582 0.47766,-0.15604 0.55986,-0.15604 0.0822,0 4.22496,8.154 9.20616,18.12 4.9812,9.966 9.16842,18.246 9.30494,18.4 0.22495,0.253755 0.65724,0.28 4.612,0.28 3.75372,0 4.39891,-0.03515 4.6152,-0.251429 0.22558,-0.22559 0.25142,-2.100446 0.25142,-18.24396 V 49.27208 l 0.42771,-0.162616 c 0.31704,-0.120538 0.4776,-0.109162 0.62051,0.04396 0.10605,0.113618 3.99298,8.270576 8.63764,18.126576 4.64464,9.856 8.55256,18.046 8.68427,18.2 0.21795,0.254837 0.6604,0.28 4.92325,0.28 4.04464,0 4.71808,-0.03431 4.9352,-0.251429 0.22558,-0.22559 0.25142,-2.100446 0.25142,-18.24396 V 49.27208 l 0.42771,-0.162616 c 0.31699,-0.120523 0.47789,-0.109144 0.62154,0.04396 0.10661,0.113618 3.99483,8.270576 8.64049,18.126576 4.64567,9.856 8.55314,18.046 8.68327,18.2 0.21406,0.253336 0.62657,0.279766 4.33179,0.27755 2.25235,-0.0013 4.1849,-0.05941 4.29451,-0.129019 0.15677,-0.09955 0.208,-3.998118 0.24,-18.266043 l 0.0407,-18.139475 0.42112,-0.112619 c 0.23162,-0.06194 0.49064,-0.06712 0.57562,-0.0115 0.23384,0.153036 52.59036,111.079506 52.56555,111.369316 -0.0118,0.13848 -11.81805,25.23579 -26.23595,55.77179 -24.25514,51.37048 -26.24501,55.5236 -26.62405,55.5681 -0.22533,0.0264 -0.4932,-0.0526 -0.5953,-0.17557 -0.13785,-0.16613 -0.19608,-4.8707 -0.2263,-18.2881 L 221.28,235.28 h -4.39046 -4.39047 l -8.63008,18.28 c -8.898,18.84749 -8.70269,18.47192 -9.4559,18.18288 -0.22871,-0.0878 -0.25309,-1.82686 -0.25309,-18.04942 0,-14.10951 -0.0428,-18.01076 -0.2,-18.22543 -0.18219,-0.2488 -0.63373,-0.26933 -5.07179,-0.23057 l -4.87178,0.0425 -8.6331,18.28 c -8.87792,18.79843 -8.70637,18.46834 -9.45024,18.18288 -0.22871,-0.0878 -0.25309,-1.82344 -0.25309,-18.01051 0,-12.04219 -0.0543,-18.01483 -0.16563,-18.22288 -0.15779,-0.29485 -0.38098,-0.30949 -4.71939,-0.30949 h -4.55378 l -9.1606,18.28 c -8.38586,16.73402 -9.19559,18.28406 -9.5743,18.3281 -0.22753,0.0264 -0.49722,-0.0526 -0.59931,-0.17557 z M 167.63498,267.32 c 4.85633,-10.08954 50.36235,-106.73811 50.35548,-106.94821 -0.0141,-0.4295 -50.77523,-107.780046 -50.99966,-107.854854 -0.14693,-0.04898 -0.1908,3.835376 -0.1908,16.896645 0,9.328136 -0.0437,17.074136 -0.0971,17.213333 -0.0856,0.222971 -0.66624,0.253086 -4.88,0.253086 -4.33804,0 -4.78288,0.02455 -4.78288,0.264002 0,0.1452 8.208,16.626808 18.24,36.625798 10.032,19.99899 18.24,36.47626 18.24,36.61614 0,0.13988 -8.21237,16.67896 -18.24971,36.75348 -10.03735,20.07455 -18.21202,36.59741 -18.16594,36.71748 0.0677,0.17633 1.00055,0.22648 4.84971,0.26072 l 4.76594,0.0424 0.0407,17.16 c 0.0224,9.43912 0.10262,17.16 0.17832,17.16 0.0757,0 0.38885,-0.522 0.69594,-1.16 z m 53.41297,-52.76421 C 235.03043,184.94611 246.46898,160.576 246.46691,160.4 246.46179,159.95832 195.7163,52.59877 195.47459,52.518198 195.32262,52.467539 195.28,56.167614 195.28,69.413581 c 0,9.328136 -0.0437,17.074136 -0.0971,17.213333 -0.0857,0.22346 -0.69443,0.253086 -5.2,0.253086 -4.68144,0 -5.10288,0.0223 -5.10288,0.270029 0,0.148515 7.75203,16.682471 17.22674,36.742111 15.46836,32.74933 17.20988,36.51474 17.06171,36.88997 -0.0908,0.22984 -7.84634,16.68091 -17.23461,36.55794 -9.38827,19.87702 -17.04709,36.25702 -17.01962,36.4 0.0445,0.23145 0.61087,0.26872 5.16788,0.33995 l 5.1179,0.08 0.0407,17.17309 c 0.0288,12.15339 0.091,17.15635 0.21262,17.11579 0.0945,-0.0315 11.61212,-24.28341 25.59461,-53.89309 z m 27.42437,-0.30803 25.40272,-53.83224 -0.38859,-0.80776 C 273.27272,159.16349 261.8017,134.878 247.9953,105.64 233.74509,75.462179 222.80382,52.48 222.68707,52.48 c -0.16598,0 -0.21349,3.308838 -0.24635,17.16 L 222.4,86.8 l -4.52,0.04249 c -4.0651,0.03822 -4.52,0.0689 -4.52,0.304861 0,0.144301 7.74864,16.666269 17.2192,36.715469 10.21978,21.63532 17.18672,36.56776 17.13933,36.73515 -0.0439,0.15512 -7.79568,16.6192 -17.22615,36.58686 -9.43044,19.96765 -17.12419,36.41965 -17.0972,36.56 0.0433,0.22517 0.58032,0.26016 4.56695,0.29767 l 4.51787,0.0425 v 17.09084 c 0,9.39997 0.0497,17.14056 0.11048,17.20132 0.0607,0.0608 0.19341,0.0188 0.29478,-0.0933 0.10138,-0.1121 11.61556,-24.42832 25.58706,-54.03605 z M 98,268.49307 c -4.12452,-4.16571 -7.9968,-6.54025 -11.74939,-7.20491 -2.81345,-0.49832 -5.62048,0.0871 -12.14538,2.53288 -4.15614,1.55789 -6.10634,2.1681 -8.26916,2.58736 -5.74544,1.11376 -10.24147,0.1023 -15.62925,-3.51606 -2.51148,-1.68668 -5.1531,-3.81698 -5.25159,-4.23509 -0.26153,-1.11021 -0.58168,-4.79255 -0.66408,-7.63802 -0.0855,-2.95406 0.12576,-7.96421 0.37219,-8.82483 0.0636,-0.22194 0.58717,0.22472 2.34922,2.00389 2.74512,2.77181 4.95865,4.46923 7.35831,5.64264 4.75104,2.3232 9.00459,2.20889 15.43062,-0.41467 6.10735,-2.49346 7.11888,-2.8778 8.55912,-3.25199 3.00522,-0.78083 5.70047,-0.83677 8.30129,-0.1723 1.26963,0.32437 3.78963,1.51448 5.5781,2.63433 1.59302,0.99749 6.2958,4.24236 6.62379,4.57036 0.28315,0.28313 0.81305,2.53968 1.25711,5.35334 0.29393,1.86242 0.33782,2.77722 0.31854,6.64 -0.0123,2.464 -0.0802,4.70379 -0.1509,4.97733 L 100.16,270.67464 Z M 48.61243,203.85853 c -3.1372,-0.0958 -3.2392,-0.10947 -3.64289,-0.48914 -0.64228,-0.60406 -0.87673,-1.70105 -0.99241,-4.64358 -0.15281,-3.88707 0.39159,-7.86597 1.11805,-8.17154 0.61922,-0.26046 12.05508,-1.18262 20.10482,-1.62121 6.79607,-0.37029 25.43615,-0.18964 33.19669,0.32172 l 1.5967,0.10522 0.19173,0.86538 c 0.23495,1.06043 0.53484,4.75083 0.535,6.58368 1.2e-4,1.44507 -0.71406,5.53568 -1.0223,5.85536 -0.12337,0.12795 -2.3335,0.24104 -7.21782,0.36932 -3.872,0.1017 -11.288,0.3276 -16.48,0.50202 -10.13633,0.34053 -22.16279,0.48226 -27.38757,0.32277 z M 67.92,152.40982 c -6.33536,-0.9181 -13.65671,-4.53035 -22.66693,-11.18354 l -1.62693,-1.20133 -0.11548,-0.92431 c -0.10791,-0.86366 -0.004,-5.59753 0.22839,-10.38064 0.12012,-2.4749 -0.0593,-2.38734 2.59581,-1.26662 2.09646,0.88491 4.46739,2.23127 9.24186,5.24812 5.68973,3.59516 8.28614,4.95054 11.31832,5.90841 4.1155,1.30009 7.43359,1.35125 11.98496,0.18479 2.46146,-0.63085 4.15698,-1.25102 9.56502,-3.49861 2.21936,-0.92237 4.82716,-1.95923 5.79509,-2.30413 1.84748,-0.6583 4.51926,-1.40708 4.62683,-1.2967 0.19204,0.19707 0.38704,7.42572 0.24129,8.94474 -0.22612,2.35664 -0.42894,3.70516 -0.57945,3.85259 -0.0708,0.0694 -1.64078,0.78741 -3.48878,1.59561 -8.09722,3.54127 -13.12792,5.21888 -18.24,6.08257 -2.51234,0.42446 -6.80344,0.53998 -8.88,0.23905 z m 29.81731,-28.40654 c -0.45248,-0.16061 -2.43248,-1.04708 -4.4,-1.96993 -4.17792,-1.95962 -5.3235,-2.35277 -7.19537,-2.46939 -2.31864,-0.14444 -3.79465,0.28081 -8.62194,2.48406 -2.8085,1.28185 -5.33793,2.19395 -5.6129,2.024 -0.0839,-0.0518 -0.1471,-2.03677 -0.1471,-4.61666 0,-4.11132 0.0256,-4.54794 0.28,-4.76796 0.60641,-0.52453 4.20658,-2.62268 5.72,-3.33357 3.18655,-1.49679 5.37982,-2.00585 8.06814,-1.87265 3.17442,0.1573 6.12381,1.1854 10.88116,3.79296 l 2.04911,1.12314 0.0975,0.76136 c 0.32714,2.55486 0.2308,9.00311 -0.1359,9.0961 -0.088,0.0223 -0.53021,-0.0908 -0.98269,-0.25146 z M 79.84,80.15024 C 74.82821,79.753035 70.30196,77.907883 67.52336,75.129288 65.79773,73.403653 64.75592,71.538128 64.0781,68.96 c -0.54922,-2.088978 -0.62519,-5.906869 -0.16229,-8.156045 0.84484,-4.104998 2.70884,-6.560659 6.32419,-8.331549 2.48768,-1.218532 3.88765,-1.504265 7.392,-1.508712 2.13687,-0.0027 2.96581,0.05011 3.11414,0.198445 0.15712,0.157117 0.21637,2.420096 0.26605,10.16 0.0361,5.631306 0.12804,10.079517 0.21149,10.237861 0.1235,0.234317 0.37508,0.279547 1.54195,0.277222 2.83934,-0.0057 5.2548,-0.895086 6.89165,-2.537664 2.76755,-2.777236 3.04209,-7.047963 0.87897,-13.672996 -0.39749,-1.217392 -0.69479,-2.241356 -0.66067,-2.275476 0.12961,-0.129609 6.93409,0.937143 7.12759,1.117408 0.2979,0.277525 1.11691,4.455776 1.33122,6.791354 0.34223,3.729546 -0.0905,7.87089 -1.08979,10.431029 -1.71082,4.382824 -5.75883,7.293184 -11.4046,8.199459 -2.03067,0.32597 -4.05823,0.413798 -6,0.259904 z M 76.84458,65.52 c 0.0245,-3.256 0.005,-6.082 -0.043,-6.28 -0.0783,-0.321637 -0.18534,-0.359747 -1.00458,-0.357635 -3.47389,0.009 -5.84377,1.786763 -6.30156,4.727221 -0.51929,3.335499 1.70806,6.419998 5.44022,7.533792 2.06258,0.615539 1.85744,1.219856 1.90897,-5.623378 z"
     style="fill:#ff6600;stroke-width:0.16"
     inkscape:export-filename="C:\Users\Rafael Jaime\Documents\desarrollo\ng6\m2mdas\src\assets\images\logo.png"
     inkscape:export-xdpi="160.02"
     inkscape:export-ydpi="160.02" />
  <path
     inkscape:connector-curvature="0"
     id="path5103"
     d="m 27.36,299.36778 c -3.80973,-1.00215 -6.51203,-3.57597 -7.20956,-6.8668 -0.33957,-1.60204 -0.33816,-263.566532 0.001,-265.168767 0.35589,-1.679197 0.97728,-2.788039 2.32414,-4.147315 1.32649,-1.338724 3.00991,-2.296447 4.96399,-2.82408 C 28.42727,20.094133 35.09093,20.08 159.83961,20.08 c 124.74869,0 131.41234,0.01413 132.4,0.280818 4.05885,1.095955 6.90101,4.013524 7.36381,7.559182 0.11525,0.882938 0.15299,42.078162 0.12163,132.8 l -0.0454,131.52 -0.36148,1.06398 c -0.99037,2.91509 -3.62965,5.1944 -7.01823,6.06106 -1.22013,0.31206 -2.44121,0.31488 -132.52589,0.30614 -126.99535,-0.008 -131.33107,-0.0184 -132.4144,-0.3034 z m 264.78888,-0.86208 c 1.75091,-0.53652 3.13846,-1.35684 4.34338,-2.56776 1.23561,-1.24181 1.88608,-2.3817 2.1455,-3.75978 0.22443,-1.19218 0.22581,-263.313891 0.002,-264.516322 -0.5712,-3.060648 -3.4719,-5.734467 -7.00962,-6.461347 -1.03592,-0.212849 -16.18931,-0.240171 -131.84,-0.237713 -114.12416,0.0024 -130.81135,0.03245 -131.78953,0.237118 -2.80732,0.587381 -5.31294,2.462974 -6.43793,4.819131 L 20.96,27.28 20.9183,159.36 c -0.0296,93.7544 0.008,132.32232 0.13033,132.91512 0.66568,3.23093 3.81733,5.85142 7.7514,6.44502 0.44,0.0664 59.66,0.11072 131.6,0.0985 125.92434,-0.0214 130.83538,-0.033 131.74888,-0.31296 z M 137.24,271.67501 136.88,271.5303 v -18.07952 c 0,-17.71094 -0.006,-18.08289 -0.30948,-18.24515 -0.20581,-0.11014 -4.5241,-0.16563 -12.89063,-0.16563 h -12.58114 l 0.0506,-0.44 0.0506,-0.44 h 13.28 13.28 l 0.0407,17.32 c 0.0322,13.70323 0.0824,17.32 0.24019,17.32 0.10971,0 12.39436,-24.39011 27.29921,-54.20024 L 192.4398,160.39954 165.37983,106.27976 C 147.4509,70.421928 138.23918,52.16 138.08067,52.16 c -0.21058,0 -0.24411,2.064862 -0.27995,17.24 l -0.0407,17.24 -13.33072,0.04092 -13.33071,0.04092 0.0507,-0.440921 L 111.2,85.84 123.91116,85.79903 c 9.92512,-0.03199 12.73886,-0.08459 12.83755,-0.24 0.0695,-0.109466 0.12749,-8.315658 0.12884,-18.235981 l 0.002,-18.036952 0.40745,-0.102262 c 0.2241,-0.05625 0.4581,-0.05318 0.52,0.0068 0.0619,0.05999 4.21655,8.29464 9.23255,18.299214 L 156.16,85.68 h 4.72 4.72 l 0.0407,-18.197123 0.0407,-18.197122 0.42421,-0.10647 c 0.30017,-0.07534 0.48017,-0.02994 0.6156,0.155257 0.10526,0.143952 3.95413,8.236568 8.55302,17.983594 4.5989,9.747026 8.46391,17.884886 8.5889,18.084136 l 0.22726,0.362272 4.99483,-0.04227 4.99482,-0.04227 0.0407,-18.197123 0.0407,-18.197122 0.41286,-0.103622 c 0.2632,-0.06606 0.48508,-0.0236 0.61207,0.117123 0.10955,0.12141 3.96443,8.212744 8.56638,17.980744 4.60197,9.768 8.46789,17.922 8.59095,18.12 0.22321,0.359115 0.23452,0.36 4.60296,0.36 3.84564,0 4.39102,-0.03084 4.4763,-0.253086 0.0534,-0.139197 0.0971,-8.345826 0.0971,-18.236952 v -17.98387 l 0.40746,-0.102262 c 0.22409,-0.05625 0.44691,-0.0628 0.49515,-0.01456 0.093,0.09297 51.48414,108.827736 52.16968,110.381966 l 0.40193,0.91124 -26.11401,55.32875 c -14.36271,30.43084 -26.21007,55.48162 -26.32747,55.66842 -0.1554,0.24728 -0.32487,0.31837 -0.62309,0.26136 l -0.40965,-0.0783 v -17.99186 c 0,-12.09627 -0.0543,-18.09328 -0.16563,-18.30134 -0.15735,-0.294 -0.37555,-0.30936 -4.36,-0.30704 -2.3069,0.002 -4.28757,0.0616 -4.40146,0.13382 -0.1139,0.0723 -4.06125,8.29717 -8.77189,18.27756 -4.71062,9.9804 -8.61971,18.20284 -8.68684,18.27212 -0.0671,0.0693 -0.3138,0.053 -0.54813,-0.036 L 194.16,271.52792 v -18.05195 c 0,-13.82709 -0.0449,-18.0969 -0.192,-18.24397 -0.30104,-0.30104 -9.6257,-0.27144 -9.92866,0.0315 -0.12292,0.12293 -4.0584,8.34893 -8.74547,18.28 -4.68707,9.93106 -8.5759,18.11315 -8.64185,18.18243 -0.066,0.0693 -0.31164,0.053 -0.54597,-0.036 L 165.68,271.52792 v -18.07833 c 0,-17.70976 -0.006,-18.0817 -0.30949,-18.24396 -0.35531,-0.19016 -8.78336,-0.23027 -9.07162,-0.0432 -0.0996,0.0647 -4.29367,8.34355 -9.32014,18.39755 -5.02647,10.054 -9.19297,18.27544 -9.25889,18.26986 -0.0659,-0.006 -0.28186,-0.0752 -0.47986,-0.15485 z m 55.34858,-56.9633 C 206.56896,185.10427 218.04091,160.736 218.08181,160.56 218.19208,160.08538 167.28797,52.421323 166.91978,52.350414 166.65482,52.299389 166.64,53.207651 166.64,69.508269 V 86.72 l -4.68,0.0024 c -2.69658,0.0014 -4.78172,0.06725 -4.92,0.155358 -0.19885,0.126688 2.90682,6.447346 18.11259,36.862832 l 18.35259,36.70993 -18.31875,36.68055 c -10.07533,20.1743 -18.2595,36.73981 -18.18707,36.81224 0.0724,0.0724 2.25322,0.15081 4.84618,0.17417 l 4.71446,0.0425 0.0396,17.04 c 0.0218,9.372 0.0758,17.13598 0.12008,17.25331 0.0443,0.11731 0.16366,0.18558 0.26528,0.15171 0.10161,-0.0339 11.62326,-24.28585 25.60365,-53.89331 z m 28.55897,-0.16118 C 235.16746,184.85574 246.63867,160.4971 246.63914,160.42024 246.64074,160.29051 197.08142,55.278094 196.05757,53.24 195.07946,51.292971 195.12,50.58907 195.12,69.517784 v 17.197782 l -5.16,0.04222 -5.16,0.04222 0.016,0.4 c 0.009,0.22 7.73081,16.718584 17.16,36.663514 9.42917,19.94492 17.14395,36.39355 17.14395,36.55251 0,0.15896 -7.74,16.68376 -17.2,36.7218 -9.46,20.03804 -17.2,36.5464 -17.2,36.68527 0,0.22389 0.58448,0.25726 5.16,0.29469 l 5.16,0.0422 0.0396,17.04 c 0.0218,9.372 0.0758,17.13598 0.12008,17.25331 0.0443,0.11731 0.16526,0.18506 0.26885,0.15053 0.10358,-0.0345 11.65916,-24.35853 25.67905,-54.05331 z M 223.01731,268.28 C 223.52934,267.4596 273.84,160.68331 273.84,160.41701 273.84,160.20459 226.04702,58.769147 223.30411,53.16 c -0.41643,-0.851555 -0.71072,-1.046286 -0.88699,-0.586914 -0.0534,0.139197 -0.0971,7.879197 -0.0971,17.2 V 86.72 H 217.835 c -3.8749,0 -4.49778,0.03325 -4.5788,0.24439 -0.0545,0.141887 7.12814,15.53319 17.12502,36.69658 9.47034,20.04871 17.21882,36.58874 17.21885,36.75562 1e-5,0.16687 -7.73999,16.69735 -17.2,36.73439 -9.46003,20.03704 -17.20005,36.54304 -17.20005,36.68 0,0.21953 0.53987,0.24902 4.56,0.24902 h 4.56 v 17.02691 c 0,9.3648 0.0437,17.1408 0.0971,17.28 0.13502,0.35186 0.33622,0.31602 0.60019,-0.10691 z M 98.08,268.46093 c -4.53737,-4.57555 -8.24111,-6.77151 -12.37584,-7.33762 -2.5613,-0.35069 -5.34431,0.25064 -10.90416,2.35608 -7.14844,2.70701 -10.02909,3.36386 -14,3.19223 -4.62374,-0.19983 -8.46215,-1.95668 -14.02561,-6.41952 -1.51236,-1.21319 -1.7161,-1.4364 -1.79821,-1.97015 -0.18548,-1.20553 -0.56105,-5.12744 -0.66287,-6.92195 -0.0937,-1.65146 0.0983,-6.21912 0.35525,-8.45024 l 0.0979,-0.85024 2.25676,2.24922 c 3.46044,3.44883 5.62477,5.02665 8.46774,6.17302 1.83445,0.73971 3.4494,1.03824 5.61661,1.03824 3.2038,0 5.55296,-0.6231 10.91922,-2.8963 5.82426,-2.4672 7.56065,-2.93117 10.9332,-2.92146 4.28028,0.0123 6.15735,0.82157 13.22881,5.70325 l 2.7488,1.8976 0.40338,1.70845 c 0.64637,2.73761 0.91428,4.86492 1.01116,8.0292 0.0914,2.98358 -0.0565,7.36049 -0.24854,7.3578 -0.057,-0.002 -0.96761,-0.87272 -2.02361,-1.93761 z M 46.24,203.72101 c -0.96111,-0.0737 -1.39579,-0.42826 -1.79597,-1.46512 -0.41627,-1.07853 -0.41343,-7.57187 0.004,-9.77989 0.15856,-0.83819 0.34028,-1.6081 0.4038,-1.71088 0.17441,-0.28219 9.68803,-1.12 19.06789,-1.6792 6.87962,-0.41013 31.7411,-0.1737 35.36,0.33627 l 0.72,0.10146 0.20052,1.19817 c 0.11028,0.659 0.2466,2.61668 0.30293,4.35037 0.098,3.01479 0.0832,3.24952 -0.33886,5.38459 l -0.44129,2.2324 -2.10165,0.0951 c -1.15591,0.0523 -5.01765,0.16998 -8.58165,0.26149 -3.564,0.0915 -10.764,0.30721 -16,0.47939 -8.56758,0.28171 -24.18984,0.39586 -26.8,0.19581 z m 22,-51.34792 c -4.60951,-0.72986 -8.82234,-2.29978 -13.70011,-5.10538 -2.86171,-1.646 -10.45857,-6.79502 -10.81744,-7.33186 -0.24648,-0.36872 0.013,-12.92465 0.27248,-13.18411 0.14145,-0.14145 2.41823,0.77277 4.27835,1.71793 1.76718,0.89793 3.39868,1.87827 9.08672,5.46003 4.94755,3.11546 9.0278,4.91995 12.48737,5.52253 1.15209,0.20066 2.08467,0.24286 3.91263,0.17702 4.22946,-0.15233 6.74788,-0.90117 15.84,-4.70996 5.10265,-2.13756 8.93211,-3.35275 9.19994,-2.91939 0.0689,0.11157 0.17333,1.93923 0.23196,4.06148 0.0894,3.2369 0.06,4.21928 -0.18266,6.09701 l -0.28924,2.23838 -0.8,0.3804 c -0.44,0.20923 -2.528,1.11987 -4.64,2.02366 -9.92979,4.24927 -15.58283,5.71039 -21.8882,5.65738 -1.42549,-0.012 -2.7718,-0.0503 -2.9918,-0.0851 z m 28.64,-28.8367 c -0.836,-0.33823 -2.63843,-1.15957 -4.00541,-1.8252 -6.32627,-3.08047 -8.1446,-3.06504 -15.11459,0.12833 C 75.27948,122.976 72.62199,124 72.15315,124 c -0.26462,0 -0.43804,-4.01756 -0.29669,-6.87337 l 0.11316,-2.28615 1.29519,-0.84003 c 3.18255,-2.06412 6.22258,-3.50369 8.6647,-4.10305 2.59953,-0.63799 5.75114,-0.41355 8.61017,0.61319 2.69412,0.96751 7.9719,3.65937 8.18179,4.173 0.16343,0.39994 0.30339,7.49242 0.16906,8.56751 -0.0663,0.53098 -0.19193,0.9071 -0.30204,0.90458 -0.10367,-0.002 -0.87249,-0.28106 -1.70849,-0.61929 z M 78.96,79.996416 C 73.44495,79.228933 69.28238,77.231094 66.71615,74.119942 63.86984,70.669227 62.88053,64.917227 64.24633,59.76012 c 1.15808,-4.372733 4.44196,-7.291491 9.48611,-8.431386 1.65254,-0.373444 5.92773,-0.481155 6.68138,-0.168332 l 0.41381,0.171768 0.10084,10.11108 c 0.078,7.81688 0.14694,10.166628 0.30401,10.355889 0.16883,0.203431 0.48751,0.228339 1.88535,0.147363 0.92519,-0.0536 2.11417,-0.213785 2.64217,-0.355977 1.42857,-0.384722 3.02059,-1.285893 3.99753,-2.262834 2.77533,-2.775336 3.04598,-7.30247 0.82737,-13.839561 -0.57343,-1.689599 -0.65045,-2.04797 -0.44001,-2.04722 0.14031,4.8e-4 1.69511,0.215204 3.45511,0.477116 1.76,0.261912 3.248,0.477502 3.30667,0.479089 0.12512,0.0034 0.65099,2.191579 1.01964,4.242885 0.35595,1.9806 0.48582,6.62053 0.2436,8.702678 -0.80885,6.952783 -4.71105,10.987079 -12.00991,12.416472 -1.58888,0.311164 -5.69633,0.446519 -7.2,0.237266 z M 76.90315,71.24 c 0.0333,-0.154 0.0356,-2.998146 0.005,-6.320323 l -0.0553,-6.040322 -0.40588,-0.101872 c -0.68888,-0.172897 -2.92978,0.233535 -3.96904,0.719867 -1.30836,0.612252 -2.05619,1.302893 -2.5918,2.393594 -0.40246,0.819611 -0.44638,1.074355 -0.44638,2.589056 0,1.559085 0.0369,1.758006 0.51338,2.763813 0.89171,1.882537 2.69085,3.335081 4.92662,3.977533 1.29193,0.371238 1.9457,0.377267 2.02315,0.01865 z"
     style="fill:#ff6600;stroke-width:0.16"
     inkscape:export-filename="C:\Users\Rafael Jaime\Documents\desarrollo\ng6\m2mdas\src\assets\images\logo.png"
     inkscape:export-xdpi="160.02"
     inkscape:export-ydpi="160.02" />
  <path
     inkscape:connector-curvature="0"
     id="path5101"
     d="m 28.6598,299.49827 c -3.34835,-0.4299 -6.36819,-2.44126 -7.67982,-5.11513 -0.3192,-0.65072 -0.65228,-1.57096 -0.74017,-2.04498 -0.23667,-1.27632 -0.21981,-263.874677 0.017,-265.010285 0.42037,-2.015808 1.8048,-3.985869 3.71038,-5.279925 1.19209,-0.809531 2.40602,-1.306849 3.98719,-1.633448 C 29.07493,20.183046 41.01775,20.16 159.84,20.16 c 116.55934,0 130.78653,0.02637 131.88675,0.244494 0.7337,0.145458 1.83943,0.540456 2.7297,0.97513 2.65229,1.294965 4.49915,3.564912 4.98112,6.122214 0.10909,0.578826 0.16152,44.056586 0.15965,132.400002 -0.002,113.63816 -0.034,131.68557 -0.23231,132.62133 -0.46645,2.20121 -2.01784,4.24998 -4.18544,5.52729 -1.38902,0.81852 -2.67184,1.24594 -4.38365,1.46058 -1.69195,0.21216 -260.48235,0.19954 -262.13602,-0.0128 z m 263.55759,-0.94277 c 3.05514,-0.8466 5.31117,-2.77161 6.30618,-5.38081 L 298.88,292.24 l 0.0434,-131.6 c 0.0298,-90.56735 -0.008,-131.949214 -0.12317,-132.72 -0.24061,-1.618155 -0.96357,-2.994648 -2.22693,-4.24 -1.18139,-1.164547 -2.39702,-1.871066 -4.17326,-2.425459 L 291.2,20.88 H 159.76 28.32 l -1.28,0.435906 c -3.34097,1.137774 -5.61303,3.479923 -6.15669,6.346625 -0.11026,0.581424 -0.16254,43.562146 -0.16094,132.319309 0.002,116.74006 0.0294,131.57304 0.24424,132.4843 0.66823,2.83493 2.97801,5.04428 6.31339,6.03888 l 1.2,0.35783 131.28322,0.009 131.28321,0.009 1.17096,-0.3245 z M 137.24204,271.54936 c -0.15497,-0.0984 -0.2071,-4.05643 -0.24,-18.22424 -0.0231,-9.95418 -0.102,-18.1585 -0.17528,-18.23181 -0.0733,-0.0733 -5.85128,-0.15528 -12.84,-0.18211 -12.46356,-0.0479 -12.70676,-0.0548 -12.70676,-0.36 0,-0.30574 0.23112,-0.3112 13.2,-0.3112 h 13.2 v 17.36 c 0,17.25248 0.002,17.36 0.31995,17.36 0.26598,0 4.89864,-9.15733 27.45997,-54.27984 l 27.14002,-54.27984 -27.1453,-54.29087 C 143.72361,62.647157 138.25457,51.829136 138.03468,51.87148 c -0.25725,0.04954 -0.27726,1.151506 -0.31539,17.370706 L 137.67857,86.56 h -13.19928 c -13.09262,0 -13.19929,-0.0026 -13.19929,-0.32 0,-0.317315 0.10667,-0.32 12.71437,-0.32 12.40657,0 12.71838,-0.0075 12.88,-0.309482 0.11136,-0.208075 0.16563,-6.210868 0.16563,-18.32 V 49.28 h 0.36033 c 0.31834,0 1.41117,2.102582 9.37644,18.04 4.95886,9.922 9.12787,18.166 9.26447,18.32 0.22562,0.25437 0.66788,0.28 4.83156,0.28 3.35138,0 4.6348,-0.0516 4.7752,-0.192 0.14707,-0.147075 0.192,-4.436139 0.192,-18.330627 V 49.258746 l 0.41042,0.05063 c 0.3776,0.04658 1.09286,1.496248 8.94572,18.130627 4.69444,9.944 8.61658,18.17 8.71589,18.28 0.25456,0.281934 9.93445,0.289514 10.21597,0.008 0.14707,-0.147075 0.192,-4.436139 0.192,-18.330627 v -18.13863 l 0.41309,0.05063 c 0.38123,0.04672 1.06521,1.432777 8.86801,17.970627 4.65021,9.856 8.57255,18.083131 8.71628,18.282515 l 0.26136,0.362514 4.43062,-0.04251 L 221.44,85.84 221.52,67.6 221.6,49.36 222,49.317371 c 0.38317,-0.04084 1.50312,2.29384 26.62576,55.504679 23.53138,49.84047 26.2088,55.58997 26.06066,55.96262 -0.34773,0.87472 -52.23304,110.66229 -52.35912,110.79015 -0.0731,0.0742 -0.28468,0.0536 -0.47012,-0.0456 L 221.52,271.34874 v -18.13725 c 0,-16.3912 -0.0244,-18.14661 -0.25309,-18.23437 -0.1392,-0.0534 -2.10544,-0.0971 -4.36942,-0.0971 -3.04467,0 -4.18551,0.0521 -4.38207,0.2 -0.14614,0.11 -4.1191,8.36518 -8.82876,18.34486 -4.70968,9.97968 -8.58501,18.16682 -8.61184,18.19365 -0.0268,0.0268 -0.20765,0.007 -0.40181,-0.0435 l -0.35301,-0.0923 -0.002,-18.02133 c -0.002,-9.91174 -0.0606,-18.11291 -0.13158,-18.22481 -0.19879,-0.31319 -9.75738,-0.47747 -10.14311,-0.17434 -0.15241,0.11979 -4.13201,8.38541 -8.84353,18.36802 -4.71152,9.98261 -8.58596,18.16976 -8.60986,18.19365 -0.0239,0.0239 -0.2023,0.002 -0.39646,-0.0489 l -0.35301,-0.0923 -0.002,-18.02133 c -0.002,-10.19504 -0.0641,-18.11862 -0.14429,-18.24534 -0.11376,-0.1797 -0.99606,-0.23942 -4.45931,-0.30192 -2.37463,-0.0429 -4.50653,-0.0305 -4.73757,0.0275 -0.37365,0.0938 -1.43226,2.12989 -9.57791,18.42194 -5.0368,10.07406 -9.22997,18.31538 -9.31815,18.31403 -0.0882,-0.002 -0.24941,-0.059 -0.35829,-0.12819 z m 55.53369,-56.93453 25.57573,-54.18217 -0.90365,-1.93633 C 216.9508,157.43135 205.43899,133.052 191.86598,104.32 171.35933,60.91049 167.13475,52.08 166.8739,52.08 c -0.30968,0 -0.31444,0.232069 -0.35462,17.24 l -0.0407,17.24 h -4.6087 c -3.75416,0 -4.66629,0.04259 -4.91928,0.22973 -0.29748,0.220036 0.46391,1.779182 18.04926,36.96046 l 18.35984,36.73074 -18.32955,36.65881 c -10.08127,20.16237 -18.29145,36.75816 -18.24487,36.87956 0.0694,0.18083 0.95285,0.2207 4.88972,0.2207 h 4.805 v 17.17333 c 0,9.44534 0.048,17.22134 0.10667,17.28 0.0587,0.0587 0.22066,0.106 0.36,0.10517 0.17981,-0.002 7.67525,-15.72484 25.82906,-54.18367 z m 28.26427,0.4753 c 13.948,-29.53978 25.45424,-53.93882 25.56941,-54.2201 0.20601,-0.5031 -0.20559,-1.39 -25.35242,-54.62818 -14.05902,-29.764229 -25.66251,-54.155412 -25.78557,-54.202629 -0.12304,-0.04722 -0.28734,0.01464 -0.36512,0.137464 -0.0796,0.125635 -0.14248,7.694243 -0.14385,17.303315 l -0.002,17.08 h -4.94691 c -2.7208,0 -5.0608,0.0437 -5.2,0.09712 -0.1392,0.05342 -0.25309,0.211058 -0.25309,0.350316 0,0.139259 7.75432,16.668884 17.23182,36.732504 9.47749,20.06361 17.22188,36.59196 17.20972,36.72968 -0.0122,0.13771 -7.76991,16.65793 -17.23946,36.71163 -9.46955,20.05368 -17.19496,36.57768 -17.16758,36.72 0.0444,0.23089 0.60489,0.26329 5.20764,0.30097 l 5.15786,0.0422 v 17.17112 c 0,9.44411 0.048,17.21912 0.10667,17.27778 0.0587,0.0587 0.22066,0.1064 0.36,0.10608 0.18007,0 7.58789,-15.5341 25.61333,-53.70928 z M 248.48891,214.72 c 14.02498,-29.7 25.50245,-54.12443 25.50552,-54.27651 0.007,-0.33027 -50.79598,-107.946205 -51.10782,-108.262421 -0.11875,-0.120413 -0.29482,-0.170165 -0.39125,-0.110559 C 222.36997,52.148 222.32,57.078202 222.32,69.369443 V 86.56 h -4.38691 c -2.4128,0 -4.5008,0.0437 -4.64,0.09712 -0.1392,0.05342 -0.25309,0.208208 -0.25309,0.343984 0,0.135776 7.77646,16.709936 17.28102,36.831476 l 17.28104,36.5846 -17.288,36.61615 c -9.5084,20.13888 -17.2659,36.73101 -17.23889,36.87141 0.0434,0.22544 0.58638,0.26022 4.64696,0.29771 l 4.59787,0.0425 v 17.28867 17.28868 l 0.33448,-0.0511 c 0.2759,-0.0422 4.80061,-9.50885 25.83443,-54.05114 z M 98,268.16427 c -2.54721,-2.55872 -4.96086,-4.37816 -7.44,-5.60837 -2.62133,-1.30078 -4.15284,-1.65492 -6.72,-1.55388 -2.51542,0.099 -4.45639,0.61537 -9.76169,2.59707 -6.34369,2.36955 -8.82543,2.96091 -12.42601,2.96091 -4.09237,0 -7.33262,-1.12336 -11.5723,-4.01195 -2.35236,-1.60274 -4.87476,-3.66394 -4.95715,-4.0508 -0.17124,-0.80411 -0.58155,-5.32296 -0.66985,-7.37725 -0.0861,-2.00195 0.14046,-7.13694 0.36511,-8.27738 0.0826,-0.41945 0.17261,-0.35044 2.19403,1.68248 2.48702,2.50119 4.69672,4.21031 6.91961,5.35207 2.34931,1.2067 4.02016,1.66019 6.46825,1.75557 3.52824,0.13745 6.11018,-0.503 11.72676,-2.90885 5.09282,-2.18151 7.95029,-2.96389 10.82481,-2.96389 3.93586,0 6.44885,1.09086 13.00861,5.64688 1.41996,0.98621 2.64759,1.83818 2.72805,1.89323 0.18948,0.12967 0.66737,2.11466 1.09298,4.53989 0.2686,1.53051 0.35105,2.79635 0.40645,6.24 0.0382,2.376 0.0116,4.71899 -0.0591,5.20664 L 100,270.1733 Z M 45.24258,203.29128 c -0.65685,-0.5527 -0.84151,-1.28696 -1.0088,-4.01128 -0.15831,-2.57819 -0.0271,-4.76443 0.42886,-7.14254 l 0.26505,-1.38256 0.73616,-0.0936 c 2.46411,-0.31327 10.80403,-0.9818 17.69615,-1.41853 6.31618,-0.40023 32.10324,-0.19461 35.85741,0.28592 l 0.65741,0.0841 0.19529,1.07359 c 0.10741,0.59046 0.23091,2.62158 0.27446,4.51358 0.0737,3.20466 0.0524,3.56907 -0.31266,5.32662 -0.21551,1.03765 -0.43963,1.93444 -0.49805,1.99285 -0.0584,0.0584 -3.57744,0.19768 -7.82004,0.30946 -4.2426,0.11177 -12.14182,0.34902 -17.55382,0.52721 -6.34431,0.2089 -13.14659,0.32397 -19.14772,0.32392 l -9.30773,-6e-5 z M 69.92,152.38219 c -6.56995,-0.58714 -12.11027,-2.87576 -20.32,-8.39388 -1.408,-0.94638 -3.28773,-2.25806 -4.17717,-2.91484 l -1.61717,-1.19414 -0.0767,-1.49966 c -0.0888,-1.73565 0.22937,-11.27129 0.38115,-11.42308 0.17032,-0.17032 3.40559,1.19691 5.22047,2.20616 0.93898,0.52217 2.96774,1.74509 4.50835,2.71759 8.14511,5.14155 10.57365,6.37218 14.6411,7.41916 1.60668,0.41357 2.00393,0.45289 4.56,0.4514 2.31593,-0.001 3.09045,-0.0649 4.48,-0.36741 2.10306,-0.45788 5.12946,-1.46496 8.24,-2.74199 1.32,-0.54192 3.615,-1.48308 5.09999,-2.09145 2.86313,-1.17298 6.18881,-2.31092 7.24946,-2.48053 l 0.6391,-0.10219 0.10519,2.53633 c 0.0579,1.39499 0.10543,3.25849 0.10573,4.14112 4.8e-4,1.66721 -0.40875,5.51402 -0.60634,5.6987 -0.15982,0.14937 -6.10515,2.73422 -8.59313,3.73603 -5.04254,2.03042 -9.66297,3.38224 -13.36,3.90878 -2.17688,0.31005 -5.29643,0.49967 -6.48,0.3939 z m 27.04,-28.92981 c -0.704,-0.29355 -2.42309,-1.0836 -3.82021,-1.75566 -6.56037,-3.1558 -8.50415,-3.17821 -14.98312,-0.17273 -2.48491,1.15271 -4.73075,2.05628 -5.53256,2.22593 l -0.4959,0.10492 -0.1041,-1.23156 c -0.12691,-1.50131 -0.10725,-5.55297 0.0333,-6.85274 l 0.10263,-0.94946 1.76,-1.09108 c 4.42726,-2.74458 8.18433,-4.13 11.2,-4.13 2.92618,0 6.81147,1.30305 11.42475,3.83164 l 2.04779,1.12242 0.10373,1.22711 c 0.0571,0.67491 0.10373,2.80025 0.10373,4.72297 0,4.05233 0.16683,3.78502 -1.84,2.94824 z M 79.28,79.895766 C 73.65405,79.042669 70.35542,77.641344 67.68336,74.969288 65.92267,73.208597 65.01353,71.572717 64.29223,68.86737 63.91465,67.45124 63.86855,66.986578 63.86489,64.56 c -0.004,-2.913018 0.16924,-4.06067 0.91359,-6.038211 1.39713,-3.711853 4.62643,-6.163743 9.46152,-7.183797 1.0409,-0.219598 5.33901,-0.291374 6.01788,-0.100494 l 0.41788,0.117496 0.11185,10.042504 c 0.0615,5.523376 0.14673,10.163499 0.18937,10.311382 0.11148,0.386651 0.86745,0.501928 2.43517,0.371338 4.37314,-0.36428 7.14943,-2.307221 8.32286,-5.824599 0.35102,-1.05219 0.4055,-1.495256 0.40523,-3.295619 -3.2e-4,-2.430227 -0.33637,-4.238811 -1.35168,-7.275506 -0.35919,-1.07432 -0.61776,-1.98863 -0.57459,-2.031798 0.13208,-0.13208 6.41331,0.796683 6.61266,0.97777 0.22168,0.201384 0.78097,2.728446 1.09985,4.969534 0.26945,1.893704 0.30425,6.428344 0.0627,8.165299 -0.70317,5.055552 -2.92276,8.277931 -7.10914,10.320963 -1.81014,0.883381 -3.2801,1.322034 -5.6,1.671104 -1.43273,0.21558 -4.9552,0.296831 -6,0.1384 z M 77.00183,65.24661 c 0.049,-7.448741 0.23723,-6.813556 -1.9398,-6.547261 -3.0951,0.378592 -4.95792,1.716957 -5.6108,4.031147 -1.07178,3.798981 1.37124,7.548302 5.66877,8.699928 0.484,0.129699 1.096,0.220914 1.36,0.202696 L 76.96,71.6 Z"
     style="fill:#ff6600;stroke-width:0.16"
     inkscape:export-filename="C:\Users\Rafael Jaime\Documents\desarrollo\ng6\m2mdas\src\assets\images\logo.png"
     inkscape:export-xdpi="160.02"
     inkscape:export-ydpi="160.02" />
</svg>
